<mxfile host="app.diagrams.net" agent="Mozilla/5.0 (Macintosh; Intel Mac OS X 10_15_7) AppleWebKit/537.36 (KHTML, like Gecko) Chrome/135.0.0.0 Safari/537.36 Edg/135.0.0.0" version="26.2.13">
  <diagram name="第 1 页" id="5NiuPIo_JYQkl4ZfIb5n">
    <mxGraphModel dx="1304" dy="916" grid="1" gridSize="10" guides="1" tooltips="1" connect="1" arrows="1" fold="1" page="1" pageScale="1" pageWidth="827" pageHeight="1169" math="0" shadow="0">
      <root>
        <mxCell id="0" />
        <mxCell id="1" parent="0" />
        <mxCell id="BNl5geYrNrUiQaszXV6u-1" style="edgeStyle=orthogonalEdgeStyle;rounded=0;orthogonalLoop=1;jettySize=auto;html=1;entryX=0.5;entryY=0;entryDx=0;entryDy=0;" edge="1" parent="1" source="BNl5geYrNrUiQaszXV6u-2" target="BNl5geYrNrUiQaszXV6u-7">
          <mxGeometry relative="1" as="geometry" />
        </mxCell>
        <mxCell id="BNl5geYrNrUiQaszXV6u-2" value="&lt;font style=&quot;font-size: 16px;&quot;&gt;开始计算&lt;/font&gt;" style="rounded=1;whiteSpace=wrap;html=1;shape=label;fontFamily=Times New Roman;arcSize=37;" vertex="1" parent="1">
          <mxGeometry x="340.5" y="50" width="140" height="70" as="geometry" />
        </mxCell>
        <mxCell id="BNl5geYrNrUiQaszXV6u-3" style="edgeStyle=orthogonalEdgeStyle;rounded=0;orthogonalLoop=1;jettySize=auto;html=1;entryX=0.5;entryY=0;entryDx=0;entryDy=0;exitX=1;exitY=0.5;exitDx=0;exitDy=0;" edge="1" parent="1" source="BNl5geYrNrUiQaszXV6u-7" target="BNl5geYrNrUiQaszXV6u-15">
          <mxGeometry relative="1" as="geometry">
            <mxPoint x="560" y="250" as="targetPoint" />
          </mxGeometry>
        </mxCell>
        <mxCell id="BNl5geYrNrUiQaszXV6u-4" value="CIR" style="edgeLabel;html=1;align=center;verticalAlign=middle;resizable=0;points=[];" vertex="1" connectable="0" parent="BNl5geYrNrUiQaszXV6u-3">
          <mxGeometry x="-0.7185" y="-2" relative="1" as="geometry">
            <mxPoint x="16" y="-2" as="offset" />
          </mxGeometry>
        </mxCell>
        <mxCell id="BNl5geYrNrUiQaszXV6u-5" style="edgeStyle=orthogonalEdgeStyle;rounded=0;orthogonalLoop=1;jettySize=auto;html=1;entryX=0.5;entryY=0;entryDx=0;entryDy=0;exitX=0;exitY=0.5;exitDx=0;exitDy=0;" edge="1" parent="1" source="BNl5geYrNrUiQaszXV6u-7" target="BNl5geYrNrUiQaszXV6u-10">
          <mxGeometry relative="1" as="geometry">
            <mxPoint x="200" y="250" as="targetPoint" />
            <mxPoint x="330" y="175" as="sourcePoint" />
          </mxGeometry>
        </mxCell>
        <mxCell id="BNl5geYrNrUiQaszXV6u-6" value="&lt;font style=&quot;font-size: 12px;&quot;&gt;CFR&lt;/font&gt;" style="edgeLabel;html=1;align=center;verticalAlign=middle;resizable=0;points=[];" vertex="1" connectable="0" parent="BNl5geYrNrUiQaszXV6u-5">
          <mxGeometry x="-0.0423" relative="1" as="geometry">
            <mxPoint x="39" as="offset" />
          </mxGeometry>
        </mxCell>
        <mxCell id="BNl5geYrNrUiQaszXV6u-7" value="选择CSI" style="rhombus;whiteSpace=wrap;html=1;fontFamily=Times New Roman;" vertex="1" parent="1">
          <mxGeometry x="340.5" y="160" width="140" height="70" as="geometry" />
        </mxCell>
        <mxCell id="BNl5geYrNrUiQaszXV6u-8" style="edgeStyle=orthogonalEdgeStyle;rounded=0;orthogonalLoop=1;jettySize=auto;html=1;entryX=0.5;entryY=0;entryDx=0;entryDy=0;exitX=1;exitY=0.5;exitDx=0;exitDy=0;" edge="1" parent="1" source="BNl5geYrNrUiQaszXV6u-10" target="BNl5geYrNrUiQaszXV6u-40">
          <mxGeometry relative="1" as="geometry">
            <mxPoint x="360" y="350" as="targetPoint" />
          </mxGeometry>
        </mxCell>
        <mxCell id="BNl5geYrNrUiQaszXV6u-9" value="&lt;font style=&quot;font-size: 10px;&quot;&gt;时间维度&lt;/font&gt;" style="edgeLabel;html=1;align=center;verticalAlign=middle;resizable=0;points=[];" vertex="1" connectable="0" parent="BNl5geYrNrUiQaszXV6u-8">
          <mxGeometry x="-0.6383" y="2" relative="1" as="geometry">
            <mxPoint as="offset" />
          </mxGeometry>
        </mxCell>
        <mxCell id="BNl5geYrNrUiQaszXV6u-10" value="选择计算维度&lt;span style=&quot;color: rgba(0, 0, 0, 0); font-family: monospace; font-size: 0px; text-align: start; text-wrap-mode: nowrap;&quot;&gt;%3CmxGraphModel%3E%3Croot%3E%3CmxCell%20id%3D%220%22%2F%3E%3CmxCell%20id%3D%221%22%20parent%3D%220%22%2F%3E%3CmxCell%20id%3D%222%22%20value%3D%22%E9%80%89%E6%8B%A9CSI%22%20style%3D%22rhombus%3BwhiteSpace%3Dwrap%3Bhtml%3D1%3BfontFamily%3DTimes%20New%20Roman%3B%22%20vertex%3D%221%22%20parent%3D%221%22%3E%3CmxGeometry%20x%3D%22290%22%20y%3D%22350%22%20width%3D%22140%22%20height%3D%2270%22%20as%3D%22geometry%22%2F%3E%3C%2FmxCell%3E%3C%2Froot%3E%3C%2FmxGraphModel%3E&lt;/span&gt;" style="rhombus;whiteSpace=wrap;html=1;fontFamily=Times New Roman;" vertex="1" parent="1">
          <mxGeometry x="164" y="250" width="140" height="70" as="geometry" />
        </mxCell>
        <mxCell id="BNl5geYrNrUiQaszXV6u-11" style="edgeStyle=orthogonalEdgeStyle;rounded=0;orthogonalLoop=1;jettySize=auto;html=1;entryX=0.5;entryY=0;entryDx=0;entryDy=0;" edge="1" parent="1" target="BNl5geYrNrUiQaszXV6u-231">
          <mxGeometry relative="1" as="geometry">
            <mxPoint x="680" y="465" as="targetPoint" />
            <mxPoint x="580" y="285" as="sourcePoint" />
            <Array as="points">
              <mxPoint x="580" y="286" />
              <mxPoint x="720" y="286" />
              <mxPoint x="720" y="350" />
            </Array>
          </mxGeometry>
        </mxCell>
        <mxCell id="BNl5geYrNrUiQaszXV6u-12" value="&lt;font style=&quot;font-size: 10px;&quot;&gt;时间维度&lt;/font&gt;" style="edgeLabel;html=1;align=center;verticalAlign=middle;resizable=0;points=[];" vertex="1" connectable="0" parent="BNl5geYrNrUiQaszXV6u-11">
          <mxGeometry x="-0.6383" y="2" relative="1" as="geometry">
            <mxPoint x="75" y="1" as="offset" />
          </mxGeometry>
        </mxCell>
        <mxCell id="BNl5geYrNrUiQaszXV6u-13" style="edgeStyle=orthogonalEdgeStyle;rounded=0;orthogonalLoop=1;jettySize=auto;html=1;entryX=0.5;entryY=0;entryDx=0;entryDy=0;exitX=0;exitY=0.5;exitDx=0;exitDy=0;" edge="1" parent="1" source="BNl5geYrNrUiQaszXV6u-15" target="BNl5geYrNrUiQaszXV6u-210">
          <mxGeometry relative="1" as="geometry" />
        </mxCell>
        <mxCell id="BNl5geYrNrUiQaszXV6u-14" value="空间维度" style="edgeLabel;html=1;align=center;verticalAlign=middle;resizable=0;points=[];" vertex="1" connectable="0" parent="BNl5geYrNrUiQaszXV6u-13">
          <mxGeometry x="-0.5702" y="-1" relative="1" as="geometry">
            <mxPoint x="1" as="offset" />
          </mxGeometry>
        </mxCell>
        <mxCell id="BNl5geYrNrUiQaszXV6u-15" value="选择计算维度&lt;span style=&quot;color: rgba(0, 0, 0, 0); font-family: monospace; font-size: 0px; text-align: start; text-wrap-mode: nowrap;&quot;&gt;%3CmxGraphModel%3E%3Croot%3E%3CmxCell%20id%3D%220%22%2F%3E%3CmxCell%20id%3D%221%22%20parent%3D%220%22%2F%3E%3CmxCell%20id%3D%222%22%20value%3D%22%E9%80%89%E6%8B%A9CSI%22%20style%3D%22rhombus%3BwhiteSpace%3Dwrap%3Bhtml%3D1%3BfontFamily%3DTimes%20New%20Roman%3B%22%20vertex%3D%221%22%20parent%3D%221%22%3E%3CmxGeometry%20x%3D%22290%22%20y%3D%22350%22%20width%3D%22140%22%20height%3D%2270%22%20as%3D%22geometry%22%2F%3E%3C%2FmxCell%3E%3C%2Froot%3E%3C%2FmxGraphModel%3E&lt;/span&gt;" style="rhombus;whiteSpace=wrap;html=1;fontFamily=Times New Roman;" vertex="1" parent="1">
          <mxGeometry x="530.5" y="250" width="140" height="70" as="geometry" />
        </mxCell>
        <mxCell id="BNl5geYrNrUiQaszXV6u-16" value="" style="edgeStyle=orthogonalEdgeStyle;rounded=0;orthogonalLoop=1;jettySize=auto;html=1;entryX=0.5;entryY=0;entryDx=0;entryDy=0;exitX=0;exitY=0.5;exitDx=0;exitDy=0;" edge="1" parent="1" source="BNl5geYrNrUiQaszXV6u-10" target="BNl5geYrNrUiQaszXV6u-19">
          <mxGeometry relative="1" as="geometry">
            <mxPoint x="122" y="381" as="targetPoint" />
            <mxPoint x="170" y="285" as="sourcePoint" />
            <Array as="points" />
          </mxGeometry>
        </mxCell>
        <mxCell id="BNl5geYrNrUiQaszXV6u-17" value="&lt;font style=&quot;font-size: 10px;&quot;&gt;空间维度&lt;/font&gt;" style="edgeLabel;html=1;align=center;verticalAlign=middle;resizable=0;points=[];" vertex="1" connectable="0" parent="BNl5geYrNrUiQaszXV6u-16">
          <mxGeometry x="-0.6056" y="1" relative="1" as="geometry">
            <mxPoint as="offset" />
          </mxGeometry>
        </mxCell>
        <mxCell id="BNl5geYrNrUiQaszXV6u-18" value="" style="group" vertex="1" connectable="0" parent="1">
          <mxGeometry x="60" y="340" width="117" height="116" as="geometry" />
        </mxCell>
        <mxCell id="BNl5geYrNrUiQaszXV6u-19" value="" style="rounded=1;whiteSpace=wrap;html=1;dashed=1;dashPattern=8 8;" vertex="1" parent="BNl5geYrNrUiQaszXV6u-18">
          <mxGeometry x="5" y="9" width="110" height="100" as="geometry" />
        </mxCell>
        <mxCell id="BNl5geYrNrUiQaszXV6u-20" value="" style="rounded=0;whiteSpace=wrap;html=1;fillColor=#66B2FF;" vertex="1" parent="BNl5geYrNrUiQaszXV6u-18">
          <mxGeometry x="30" y="30" width="10" height="10" as="geometry" />
        </mxCell>
        <mxCell id="BNl5geYrNrUiQaszXV6u-21" value="" style="rounded=0;whiteSpace=wrap;html=1;fillColor=#66B2FF;" vertex="1" parent="BNl5geYrNrUiQaszXV6u-18">
          <mxGeometry x="50" y="30" width="10" height="10" as="geometry" />
        </mxCell>
        <mxCell id="BNl5geYrNrUiQaszXV6u-22" value="" style="rounded=0;whiteSpace=wrap;html=1;fillColor=#66B2FF;" vertex="1" parent="BNl5geYrNrUiQaszXV6u-18">
          <mxGeometry x="70" y="30" width="10" height="10" as="geometry" />
        </mxCell>
        <mxCell id="BNl5geYrNrUiQaszXV6u-23" value="" style="rounded=0;whiteSpace=wrap;html=1;fillColor=#3333FF;" vertex="1" parent="BNl5geYrNrUiQaszXV6u-18">
          <mxGeometry x="30" y="50" width="10" height="10" as="geometry" />
        </mxCell>
        <mxCell id="BNl5geYrNrUiQaszXV6u-24" value="" style="rounded=0;whiteSpace=wrap;html=1;fillColor=#3333FF;" vertex="1" parent="BNl5geYrNrUiQaszXV6u-18">
          <mxGeometry x="50" y="50" width="10" height="10" as="geometry" />
        </mxCell>
        <mxCell id="BNl5geYrNrUiQaszXV6u-25" value="" style="rounded=0;whiteSpace=wrap;html=1;fillColor=#3333FF;" vertex="1" parent="BNl5geYrNrUiQaszXV6u-18">
          <mxGeometry x="70" y="50" width="10" height="10" as="geometry" />
        </mxCell>
        <mxCell id="BNl5geYrNrUiQaszXV6u-26" value="" style="rounded=0;whiteSpace=wrap;html=1;fillColor=#FF3399;" vertex="1" parent="BNl5geYrNrUiQaszXV6u-18">
          <mxGeometry x="30" y="70" width="10" height="10" as="geometry" />
        </mxCell>
        <mxCell id="BNl5geYrNrUiQaszXV6u-27" value="" style="rounded=0;whiteSpace=wrap;html=1;fillColor=#FF3399;" vertex="1" parent="BNl5geYrNrUiQaszXV6u-18">
          <mxGeometry x="50" y="70" width="10" height="10" as="geometry" />
        </mxCell>
        <mxCell id="BNl5geYrNrUiQaszXV6u-28" value="" style="rounded=0;whiteSpace=wrap;html=1;fillColor=#FF3399;" vertex="1" parent="BNl5geYrNrUiQaszXV6u-18">
          <mxGeometry x="70" y="70" width="10" height="10" as="geometry" />
        </mxCell>
        <mxCell id="BNl5geYrNrUiQaszXV6u-29" value="&lt;font style=&quot;font-size: 9px;&quot;&gt;...&lt;/font&gt;" style="text;html=1;align=center;verticalAlign=middle;whiteSpace=wrap;rounded=0;" vertex="1" parent="BNl5geYrNrUiQaszXV6u-18">
          <mxGeometry x="38" y="52" width="15" as="geometry" />
        </mxCell>
        <mxCell id="BNl5geYrNrUiQaszXV6u-30" value="&lt;font style=&quot;font-size: 9px;&quot;&gt;...&lt;/font&gt;" style="text;html=1;align=center;verticalAlign=middle;whiteSpace=wrap;rounded=0;" vertex="1" parent="BNl5geYrNrUiQaszXV6u-18">
          <mxGeometry x="58" y="52" width="15" as="geometry" />
        </mxCell>
        <mxCell id="BNl5geYrNrUiQaszXV6u-31" value="&lt;font style=&quot;font-size: 9px;&quot;&gt;...&lt;/font&gt;" style="text;html=1;align=center;verticalAlign=middle;whiteSpace=wrap;rounded=0;rotation=90;" vertex="1" parent="BNl5geYrNrUiQaszXV6u-18">
          <mxGeometry x="72" y="65" width="15" as="geometry" />
        </mxCell>
        <mxCell id="BNl5geYrNrUiQaszXV6u-32" value="&lt;font style=&quot;font-size: 9px;&quot;&gt;...&lt;/font&gt;" style="text;html=1;align=center;verticalAlign=middle;whiteSpace=wrap;rounded=0;rotation=90;" vertex="1" parent="BNl5geYrNrUiQaszXV6u-18">
          <mxGeometry x="51" y="65" width="15" as="geometry" />
        </mxCell>
        <mxCell id="BNl5geYrNrUiQaszXV6u-33" value="&lt;font style=&quot;font-size: 9px;&quot;&gt;...&lt;/font&gt;" style="text;html=1;align=center;verticalAlign=middle;whiteSpace=wrap;rounded=0;rotation=90;" vertex="1" parent="BNl5geYrNrUiQaszXV6u-18">
          <mxGeometry x="31" y="65" width="15" as="geometry" />
        </mxCell>
        <mxCell id="BNl5geYrNrUiQaszXV6u-34" value="&lt;font style=&quot;font-size: 7px;&quot;&gt;&lt;i&gt;CFR&lt;/i&gt;&lt;/font&gt;" style="text;html=1;align=center;verticalAlign=middle;resizable=0;points=[];autosize=1;strokeColor=none;fillColor=none;" vertex="1" parent="BNl5geYrNrUiQaszXV6u-18">
          <mxGeometry width="40" height="30" as="geometry" />
        </mxCell>
        <mxCell id="BNl5geYrNrUiQaszXV6u-35" value="" style="shape=curlyBracket;whiteSpace=wrap;html=1;rounded=1;flipH=1;labelPosition=right;verticalLabelPosition=middle;align=left;verticalAlign=middle;" vertex="1" parent="BNl5geYrNrUiQaszXV6u-18">
          <mxGeometry x="85" y="30" width="10" height="49" as="geometry" />
        </mxCell>
        <mxCell id="BNl5geYrNrUiQaszXV6u-36" value="" style="shape=curlyBracket;whiteSpace=wrap;html=1;rounded=1;flipH=1;labelPosition=right;verticalLabelPosition=middle;align=left;verticalAlign=middle;rotation=90;size=0.5;" vertex="1" parent="BNl5geYrNrUiQaszXV6u-18">
          <mxGeometry x="49.5" y="63.5" width="10" height="52" as="geometry" />
        </mxCell>
        <mxCell id="BNl5geYrNrUiQaszXV6u-37" value="n" style="text;html=1;align=center;verticalAlign=middle;resizable=0;points=[];autosize=1;strokeColor=none;fillColor=none;" vertex="1" parent="BNl5geYrNrUiQaszXV6u-18">
          <mxGeometry x="87" y="40" width="30" height="30" as="geometry" />
        </mxCell>
        <mxCell id="BNl5geYrNrUiQaszXV6u-38" value="t" style="text;html=1;align=center;verticalAlign=middle;resizable=0;points=[];autosize=1;strokeColor=none;fillColor=none;" vertex="1" parent="BNl5geYrNrUiQaszXV6u-18">
          <mxGeometry x="39" y="86" width="30" height="30" as="geometry" />
        </mxCell>
        <mxCell id="BNl5geYrNrUiQaszXV6u-39" value="" style="group" vertex="1" connectable="0" parent="1">
          <mxGeometry x="290" y="340" width="117" height="116" as="geometry" />
        </mxCell>
        <mxCell id="BNl5geYrNrUiQaszXV6u-40" value="" style="rounded=1;whiteSpace=wrap;html=1;dashed=1;dashPattern=8 8;" vertex="1" parent="BNl5geYrNrUiQaszXV6u-39">
          <mxGeometry x="5" y="9" width="110" height="100" as="geometry" />
        </mxCell>
        <mxCell id="BNl5geYrNrUiQaszXV6u-41" value="" style="rounded=0;whiteSpace=wrap;html=1;fillColor=#66B2FF;" vertex="1" parent="BNl5geYrNrUiQaszXV6u-39">
          <mxGeometry x="30" y="30" width="10" height="10" as="geometry" />
        </mxCell>
        <mxCell id="BNl5geYrNrUiQaszXV6u-42" value="" style="rounded=0;whiteSpace=wrap;html=1;fillColor=#66B2FF;" vertex="1" parent="BNl5geYrNrUiQaszXV6u-39">
          <mxGeometry x="50" y="30" width="10" height="10" as="geometry" />
        </mxCell>
        <mxCell id="BNl5geYrNrUiQaszXV6u-43" value="" style="rounded=0;whiteSpace=wrap;html=1;fillColor=#66B2FF;" vertex="1" parent="BNl5geYrNrUiQaszXV6u-39">
          <mxGeometry x="70" y="30" width="10" height="10" as="geometry" />
        </mxCell>
        <mxCell id="BNl5geYrNrUiQaszXV6u-44" value="" style="rounded=0;whiteSpace=wrap;html=1;fillColor=#3333FF;" vertex="1" parent="BNl5geYrNrUiQaszXV6u-39">
          <mxGeometry x="30" y="50" width="10" height="10" as="geometry" />
        </mxCell>
        <mxCell id="BNl5geYrNrUiQaszXV6u-45" value="" style="rounded=0;whiteSpace=wrap;html=1;fillColor=#3333FF;" vertex="1" parent="BNl5geYrNrUiQaszXV6u-39">
          <mxGeometry x="50" y="50" width="10" height="10" as="geometry" />
        </mxCell>
        <mxCell id="BNl5geYrNrUiQaszXV6u-46" value="" style="rounded=0;whiteSpace=wrap;html=1;fillColor=#3333FF;" vertex="1" parent="BNl5geYrNrUiQaszXV6u-39">
          <mxGeometry x="70" y="50" width="10" height="10" as="geometry" />
        </mxCell>
        <mxCell id="BNl5geYrNrUiQaszXV6u-47" value="" style="rounded=0;whiteSpace=wrap;html=1;fillColor=#FF3399;" vertex="1" parent="BNl5geYrNrUiQaszXV6u-39">
          <mxGeometry x="30" y="70" width="10" height="10" as="geometry" />
        </mxCell>
        <mxCell id="BNl5geYrNrUiQaszXV6u-48" value="" style="rounded=0;whiteSpace=wrap;html=1;fillColor=#FF3399;" vertex="1" parent="BNl5geYrNrUiQaszXV6u-39">
          <mxGeometry x="50" y="70" width="10" height="10" as="geometry" />
        </mxCell>
        <mxCell id="BNl5geYrNrUiQaszXV6u-49" value="" style="rounded=0;whiteSpace=wrap;html=1;fillColor=#FF3399;" vertex="1" parent="BNl5geYrNrUiQaszXV6u-39">
          <mxGeometry x="70" y="70" width="10" height="10" as="geometry" />
        </mxCell>
        <mxCell id="BNl5geYrNrUiQaszXV6u-50" value="&lt;font style=&quot;font-size: 9px;&quot;&gt;...&lt;/font&gt;" style="text;html=1;align=center;verticalAlign=middle;whiteSpace=wrap;rounded=0;" vertex="1" parent="BNl5geYrNrUiQaszXV6u-39">
          <mxGeometry x="38" y="52" width="15" as="geometry" />
        </mxCell>
        <mxCell id="BNl5geYrNrUiQaszXV6u-51" value="&lt;font style=&quot;font-size: 9px;&quot;&gt;...&lt;/font&gt;" style="text;html=1;align=center;verticalAlign=middle;whiteSpace=wrap;rounded=0;" vertex="1" parent="BNl5geYrNrUiQaszXV6u-39">
          <mxGeometry x="58" y="52" width="15" as="geometry" />
        </mxCell>
        <mxCell id="BNl5geYrNrUiQaszXV6u-52" value="&lt;font style=&quot;font-size: 9px;&quot;&gt;...&lt;/font&gt;" style="text;html=1;align=center;verticalAlign=middle;whiteSpace=wrap;rounded=0;rotation=90;" vertex="1" parent="BNl5geYrNrUiQaszXV6u-39">
          <mxGeometry x="72" y="65" width="15" as="geometry" />
        </mxCell>
        <mxCell id="BNl5geYrNrUiQaszXV6u-53" value="&lt;font style=&quot;font-size: 9px;&quot;&gt;...&lt;/font&gt;" style="text;html=1;align=center;verticalAlign=middle;whiteSpace=wrap;rounded=0;rotation=90;" vertex="1" parent="BNl5geYrNrUiQaszXV6u-39">
          <mxGeometry x="51" y="65" width="15" as="geometry" />
        </mxCell>
        <mxCell id="BNl5geYrNrUiQaszXV6u-54" value="&lt;font style=&quot;font-size: 9px;&quot;&gt;...&lt;/font&gt;" style="text;html=1;align=center;verticalAlign=middle;whiteSpace=wrap;rounded=0;rotation=90;" vertex="1" parent="BNl5geYrNrUiQaszXV6u-39">
          <mxGeometry x="31" y="65" width="15" as="geometry" />
        </mxCell>
        <mxCell id="BNl5geYrNrUiQaszXV6u-55" value="&lt;font style=&quot;font-size: 7px;&quot;&gt;&lt;i&gt;CFR&lt;/i&gt;&lt;/font&gt;" style="text;html=1;align=center;verticalAlign=middle;resizable=0;points=[];autosize=1;strokeColor=none;fillColor=none;" vertex="1" parent="BNl5geYrNrUiQaszXV6u-39">
          <mxGeometry width="40" height="30" as="geometry" />
        </mxCell>
        <mxCell id="BNl5geYrNrUiQaszXV6u-56" value="" style="shape=curlyBracket;whiteSpace=wrap;html=1;rounded=1;flipH=1;labelPosition=right;verticalLabelPosition=middle;align=left;verticalAlign=middle;" vertex="1" parent="BNl5geYrNrUiQaszXV6u-39">
          <mxGeometry x="85" y="30" width="10" height="49" as="geometry" />
        </mxCell>
        <mxCell id="BNl5geYrNrUiQaszXV6u-57" value="" style="shape=curlyBracket;whiteSpace=wrap;html=1;rounded=1;flipH=1;labelPosition=right;verticalLabelPosition=middle;align=left;verticalAlign=middle;rotation=90;size=0.5;" vertex="1" parent="BNl5geYrNrUiQaszXV6u-39">
          <mxGeometry x="49.5" y="63.5" width="10" height="52" as="geometry" />
        </mxCell>
        <mxCell id="BNl5geYrNrUiQaszXV6u-58" value="t" style="text;html=1;align=center;verticalAlign=middle;resizable=0;points=[];autosize=1;strokeColor=none;fillColor=none;" vertex="1" parent="BNl5geYrNrUiQaszXV6u-39">
          <mxGeometry x="87" y="40" width="30" height="30" as="geometry" />
        </mxCell>
        <mxCell id="BNl5geYrNrUiQaszXV6u-59" value="n" style="text;html=1;align=center;verticalAlign=middle;resizable=0;points=[];autosize=1;strokeColor=none;fillColor=none;" vertex="1" parent="BNl5geYrNrUiQaszXV6u-39">
          <mxGeometry x="39" y="86" width="30" height="30" as="geometry" />
        </mxCell>
        <mxCell id="BNl5geYrNrUiQaszXV6u-60" value="" style="group" vertex="1" connectable="0" parent="1">
          <mxGeometry x="60" y="527" width="127" height="116" as="geometry" />
        </mxCell>
        <mxCell id="BNl5geYrNrUiQaszXV6u-61" value="" style="rounded=1;whiteSpace=wrap;html=1;dashed=1;dashPattern=8 8;" vertex="1" parent="BNl5geYrNrUiQaszXV6u-60">
          <mxGeometry x="5" y="12" width="110" height="61" as="geometry" />
        </mxCell>
        <mxCell id="BNl5geYrNrUiQaszXV6u-65" value="" style="rounded=0;whiteSpace=wrap;html=1;fillColor=#4D4D4D;" vertex="1" parent="BNl5geYrNrUiQaszXV6u-60">
          <mxGeometry x="35" y="32" width="10" height="10" as="geometry" />
        </mxCell>
        <mxCell id="BNl5geYrNrUiQaszXV6u-66" value="" style="rounded=0;whiteSpace=wrap;html=1;fillColor=#999999;" vertex="1" parent="BNl5geYrNrUiQaszXV6u-60">
          <mxGeometry x="55" y="32" width="10" height="10" as="geometry" />
        </mxCell>
        <mxCell id="BNl5geYrNrUiQaszXV6u-67" value="" style="rounded=0;whiteSpace=wrap;html=1;fillColor=#E6E6E6;" vertex="1" parent="BNl5geYrNrUiQaszXV6u-60">
          <mxGeometry x="75" y="32" width="10" height="10" as="geometry" />
        </mxCell>
        <mxCell id="BNl5geYrNrUiQaszXV6u-71" value="&lt;font style=&quot;font-size: 9px;&quot;&gt;...&lt;/font&gt;" style="text;html=1;align=center;verticalAlign=middle;whiteSpace=wrap;rounded=0;" vertex="1" parent="BNl5geYrNrUiQaszXV6u-60">
          <mxGeometry x="43" y="34" width="15" as="geometry" />
        </mxCell>
        <mxCell id="BNl5geYrNrUiQaszXV6u-72" value="&lt;font style=&quot;font-size: 9px;&quot;&gt;...&lt;/font&gt;" style="text;html=1;align=center;verticalAlign=middle;whiteSpace=wrap;rounded=0;" vertex="1" parent="BNl5geYrNrUiQaszXV6u-60">
          <mxGeometry x="63" y="34" width="12" as="geometry" />
        </mxCell>
        <mxCell id="BNl5geYrNrUiQaszXV6u-76" value="&lt;i style=&quot;font-size: 7px;&quot;&gt;CFRLp&lt;/i&gt;" style="text;html=1;align=center;verticalAlign=middle;resizable=0;points=[];autosize=1;strokeColor=none;fillColor=none;" vertex="1" parent="BNl5geYrNrUiQaszXV6u-60">
          <mxGeometry x="-5" y="2" width="50" height="30" as="geometry" />
        </mxCell>
        <mxCell id="BNl5geYrNrUiQaszXV6u-78" value="" style="shape=curlyBracket;whiteSpace=wrap;html=1;rounded=1;flipH=1;labelPosition=right;verticalLabelPosition=middle;align=left;verticalAlign=middle;rotation=90;size=0.5;" vertex="1" parent="BNl5geYrNrUiQaszXV6u-60">
          <mxGeometry x="55.5" y="25" width="10" height="52" as="geometry" />
        </mxCell>
        <mxCell id="BNl5geYrNrUiQaszXV6u-80" value="n" style="text;html=1;align=center;verticalAlign=middle;resizable=0;points=[];autosize=1;strokeColor=none;fillColor=none;" vertex="1" parent="BNl5geYrNrUiQaszXV6u-60">
          <mxGeometry x="45" y="47.5" width="30" height="30" as="geometry" />
        </mxCell>
        <mxCell id="BNl5geYrNrUiQaszXV6u-82" style="edgeStyle=orthogonalEdgeStyle;rounded=0;orthogonalLoop=1;jettySize=auto;html=1;entryX=0.5;entryY=0;entryDx=0;entryDy=0;" edge="1" parent="1" source="BNl5geYrNrUiQaszXV6u-83" target="BNl5geYrNrUiQaszXV6u-61">
          <mxGeometry relative="1" as="geometry" />
        </mxCell>
        <mxCell id="BNl5geYrNrUiQaszXV6u-83" value="Lp范数计算" style="rounded=1;whiteSpace=wrap;html=1;" vertex="1" parent="1">
          <mxGeometry x="69.5" y="483" width="100" height="20" as="geometry" />
        </mxCell>
        <mxCell id="BNl5geYrNrUiQaszXV6u-430" style="edgeStyle=orthogonalEdgeStyle;rounded=0;orthogonalLoop=1;jettySize=auto;html=1;entryX=0.5;entryY=0;entryDx=0;entryDy=0;" edge="1" parent="1" source="BNl5geYrNrUiQaszXV6u-85" target="BNl5geYrNrUiQaszXV6u-402">
          <mxGeometry relative="1" as="geometry" />
        </mxCell>
        <mxCell id="BNl5geYrNrUiQaszXV6u-85" value="Lp范数计算" style="rounded=1;whiteSpace=wrap;html=1;" vertex="1" parent="1">
          <mxGeometry x="297.5" y="483" width="92" height="20" as="geometry" />
        </mxCell>
        <mxCell id="BNl5geYrNrUiQaszXV6u-86" style="edgeStyle=orthogonalEdgeStyle;rounded=0;orthogonalLoop=1;jettySize=auto;html=1;entryX=0.5;entryY=0;entryDx=0;entryDy=0;" edge="1" parent="1" source="BNl5geYrNrUiQaszXV6u-59" target="BNl5geYrNrUiQaszXV6u-85">
          <mxGeometry relative="1" as="geometry">
            <mxPoint x="344" y="510" as="targetPoint" />
          </mxGeometry>
        </mxCell>
        <mxCell id="BNl5geYrNrUiQaszXV6u-108" style="edgeStyle=orthogonalEdgeStyle;rounded=0;orthogonalLoop=1;jettySize=auto;html=1;entryX=0.5;entryY=0;entryDx=0;entryDy=0;" edge="1" parent="1" source="BNl5geYrNrUiQaszXV6u-109" target="BNl5geYrNrUiQaszXV6u-115">
          <mxGeometry relative="1" as="geometry" />
        </mxCell>
        <mxCell id="BNl5geYrNrUiQaszXV6u-109" value="变化率计算&lt;span style=&quot;color: rgba(0, 0, 0, 0); font-family: monospace; font-size: 0px; text-align: start; text-wrap-mode: nowrap;&quot;&gt;%3CmxGraphModel%3E%3Croot%3E%3CmxCell%20id%3D%220%22%2F%3E%3CmxCell%20id%3D%221%22%20parent%3D%220%22%2F%3E%3CmxCell%20id%3D%222%22%20value%3D%22%E5%B7%AE%E5%88%86%E8%AE%A1%E7%AE%97%22%20style%3D%22rounded%3D1%3BwhiteSpace%3Dwrap%3Bhtml%3D1%3B%22%20vertex%3D%221%22%20parent%3D%221%22%3E%3CmxGeometry%20x%3D%22304%22%20y%3D%22483%22%20width%3D%2280%22%20height%3D%2220%22%20as%3D%22geometry%22%2F%3E%3C%2FmxCell%3E%3C%2Froot%3E%3C%2FmxGraphModel%3E&lt;/span&gt;" style="rounded=1;whiteSpace=wrap;html=1;" vertex="1" parent="1">
          <mxGeometry x="80" y="625" width="80" height="20" as="geometry" />
        </mxCell>
        <mxCell id="BNl5geYrNrUiQaszXV6u-110" style="edgeStyle=orthogonalEdgeStyle;rounded=0;orthogonalLoop=1;jettySize=auto;html=1;entryX=0.5;entryY=0;entryDx=0;entryDy=0;" edge="1" parent="1" source="BNl5geYrNrUiQaszXV6u-111" target="BNl5geYrNrUiQaszXV6u-136">
          <mxGeometry relative="1" as="geometry" />
        </mxCell>
        <mxCell id="BNl5geYrNrUiQaszXV6u-111" value="变化率计算&lt;span style=&quot;color: rgba(0, 0, 0, 0); font-family: monospace; font-size: 0px; text-align: start; text-wrap-mode: nowrap;&quot;&gt;%3CmxGraphModel%3E%3Croot%3E%3CmxCell%20id%3D%220%22%2F%3E%3CmxCell%20id%3D%221%22%20parent%3D%220%22%2F%3E%3CmxCell%20id%3D%222%22%20value%3D%22%E5%B7%AE%E5%88%86%E8%AE%A1%E7%AE%97%22%20style%3D%22rounded%3D1%3BwhiteSpace%3Dwrap%3Bhtml%3D1%3B%22%20vertex%3D%221%22%20parent%3D%221%22%3E%3CmxGeometry%20x%3D%22304%22%20y%3D%22483%22%20width%3D%2280%22%20height%3D%2220%22%20as%3D%22geometry%22%2F%3E%3C%2FmxCell%3E%3C%2Froot%3E%3C%2FmxGraphModel%3E&lt;/span&gt;" style="rounded=1;whiteSpace=wrap;html=1;" vertex="1" parent="1">
          <mxGeometry x="303.5" y="625" width="80" height="20" as="geometry" />
        </mxCell>
        <mxCell id="BNl5geYrNrUiQaszXV6u-114" style="edgeStyle=orthogonalEdgeStyle;rounded=0;orthogonalLoop=1;jettySize=auto;html=1;entryX=0.5;entryY=0;entryDx=0;entryDy=0;" edge="1" parent="1" source="BNl5geYrNrUiQaszXV6u-115" target="BNl5geYrNrUiQaszXV6u-157">
          <mxGeometry relative="1" as="geometry" />
        </mxCell>
        <mxCell id="BNl5geYrNrUiQaszXV6u-115" value="" style="rounded=1;whiteSpace=wrap;html=1;dashed=1;dashPattern=8 8;" vertex="1" parent="1">
          <mxGeometry x="64" y="671" width="110" height="100" as="geometry" />
        </mxCell>
        <mxCell id="BNl5geYrNrUiQaszXV6u-116" value="" style="rounded=0;whiteSpace=wrap;html=1;fillColor=#9AC7BF;" vertex="1" parent="1">
          <mxGeometry x="89" y="692" width="10" height="10" as="geometry" />
        </mxCell>
        <mxCell id="BNl5geYrNrUiQaszXV6u-117" value="" style="rounded=0;whiteSpace=wrap;html=1;fillColor=#B3B3B3;" vertex="1" parent="1">
          <mxGeometry x="109" y="692" width="10" height="10" as="geometry" />
        </mxCell>
        <mxCell id="BNl5geYrNrUiQaszXV6u-118" value="" style="rounded=0;whiteSpace=wrap;html=1;fillColor=#B3B3B3;" vertex="1" parent="1">
          <mxGeometry x="129" y="692" width="10" height="10" as="geometry" />
        </mxCell>
        <mxCell id="BNl5geYrNrUiQaszXV6u-119" value="" style="rounded=0;whiteSpace=wrap;html=1;fillColor=#FFFFFF;" vertex="1" parent="1">
          <mxGeometry x="89" y="712" width="10" height="10" as="geometry" />
        </mxCell>
        <mxCell id="BNl5geYrNrUiQaszXV6u-120" value="" style="rounded=0;whiteSpace=wrap;html=1;fillColor=#E6E6E6;" vertex="1" parent="1">
          <mxGeometry x="109" y="712" width="10" height="10" as="geometry" />
        </mxCell>
        <mxCell id="BNl5geYrNrUiQaszXV6u-121" value="" style="rounded=0;whiteSpace=wrap;html=1;fillColor=#E6E6E6;" vertex="1" parent="1">
          <mxGeometry x="129" y="712" width="10" height="10" as="geometry" />
        </mxCell>
        <mxCell id="BNl5geYrNrUiQaszXV6u-122" value="" style="rounded=0;whiteSpace=wrap;html=1;fillColor=#FFFFFF;" vertex="1" parent="1">
          <mxGeometry x="89" y="732" width="10" height="10" as="geometry" />
        </mxCell>
        <mxCell id="BNl5geYrNrUiQaszXV6u-123" value="" style="rounded=0;whiteSpace=wrap;html=1;fillColor=#FFFFFF;" vertex="1" parent="1">
          <mxGeometry x="109" y="732" width="10" height="10" as="geometry" />
        </mxCell>
        <mxCell id="BNl5geYrNrUiQaszXV6u-124" value="" style="rounded=0;whiteSpace=wrap;html=1;fillColor=#4D4D4D;" vertex="1" parent="1">
          <mxGeometry x="129" y="732" width="10" height="10" as="geometry" />
        </mxCell>
        <mxCell id="BNl5geYrNrUiQaszXV6u-125" value="&lt;font style=&quot;font-size: 9px;&quot;&gt;...&lt;/font&gt;" style="text;html=1;align=center;verticalAlign=middle;whiteSpace=wrap;rounded=0;" vertex="1" parent="1">
          <mxGeometry x="97" y="714" width="15" as="geometry" />
        </mxCell>
        <mxCell id="BNl5geYrNrUiQaszXV6u-126" value="&lt;font style=&quot;font-size: 9px;&quot;&gt;...&lt;/font&gt;" style="text;html=1;align=center;verticalAlign=middle;whiteSpace=wrap;rounded=0;" vertex="1" parent="1">
          <mxGeometry x="117" y="714" width="15" as="geometry" />
        </mxCell>
        <mxCell id="BNl5geYrNrUiQaszXV6u-127" value="&lt;font style=&quot;font-size: 9px;&quot;&gt;...&lt;/font&gt;" style="text;html=1;align=center;verticalAlign=middle;whiteSpace=wrap;rounded=0;rotation=90;" vertex="1" parent="1">
          <mxGeometry x="131" y="727" width="15" as="geometry" />
        </mxCell>
        <mxCell id="BNl5geYrNrUiQaszXV6u-128" value="&lt;font style=&quot;font-size: 9px;&quot;&gt;...&lt;/font&gt;" style="text;html=1;align=center;verticalAlign=middle;whiteSpace=wrap;rounded=0;rotation=90;" vertex="1" parent="1">
          <mxGeometry x="110" y="727" width="15" as="geometry" />
        </mxCell>
        <mxCell id="BNl5geYrNrUiQaszXV6u-129" value="&lt;font style=&quot;font-size: 9px;&quot;&gt;...&lt;/font&gt;" style="text;html=1;align=center;verticalAlign=middle;whiteSpace=wrap;rounded=0;rotation=90;" vertex="1" parent="1">
          <mxGeometry x="90" y="727" width="15" as="geometry" />
        </mxCell>
        <mxCell id="BNl5geYrNrUiQaszXV6u-130" value="" style="shape=curlyBracket;whiteSpace=wrap;html=1;rounded=1;flipH=1;labelPosition=right;verticalLabelPosition=middle;align=left;verticalAlign=middle;" vertex="1" parent="1">
          <mxGeometry x="144" y="692" width="10" height="49" as="geometry" />
        </mxCell>
        <mxCell id="BNl5geYrNrUiQaszXV6u-131" value="" style="shape=curlyBracket;whiteSpace=wrap;html=1;rounded=1;flipH=1;labelPosition=right;verticalLabelPosition=middle;align=left;verticalAlign=middle;rotation=90;size=0.5;" vertex="1" parent="1">
          <mxGeometry x="108.5" y="725.5" width="10" height="52" as="geometry" />
        </mxCell>
        <mxCell id="BNl5geYrNrUiQaszXV6u-132" value="n" style="text;html=1;align=center;verticalAlign=middle;resizable=0;points=[];autosize=1;strokeColor=none;fillColor=none;" vertex="1" parent="1">
          <mxGeometry x="146" y="702" width="30" height="30" as="geometry" />
        </mxCell>
        <mxCell id="BNl5geYrNrUiQaszXV6u-133" value="&lt;div&gt;&lt;i style=&quot;&quot;&gt;&lt;font style=&quot;font-size: 10px;&quot;&gt;η&lt;/font&gt;&lt;/i&gt;&lt;/div&gt;" style="text;html=1;align=center;verticalAlign=middle;resizable=0;points=[];autosize=1;strokeColor=none;fillColor=none;" vertex="1" parent="1">
          <mxGeometry x="64.5" y="665" width="30" height="30" as="geometry" />
        </mxCell>
        <mxCell id="BNl5geYrNrUiQaszXV6u-134" value="n" style="text;html=1;align=center;verticalAlign=middle;resizable=0;points=[];autosize=1;strokeColor=none;fillColor=none;" vertex="1" parent="1">
          <mxGeometry x="97" y="747.5" width="30" height="30" as="geometry" />
        </mxCell>
        <mxCell id="BNl5geYrNrUiQaszXV6u-135" style="edgeStyle=orthogonalEdgeStyle;rounded=0;orthogonalLoop=1;jettySize=auto;html=1;entryX=0.5;entryY=0;entryDx=0;entryDy=0;" edge="1" parent="1" source="BNl5geYrNrUiQaszXV6u-136" target="BNl5geYrNrUiQaszXV6u-159">
          <mxGeometry relative="1" as="geometry" />
        </mxCell>
        <mxCell id="BNl5geYrNrUiQaszXV6u-136" value="" style="rounded=1;whiteSpace=wrap;html=1;dashed=1;dashPattern=8 8;" vertex="1" parent="1">
          <mxGeometry x="287.5" y="670.75" width="110" height="100" as="geometry" />
        </mxCell>
        <mxCell id="BNl5geYrNrUiQaszXV6u-137" value="" style="rounded=0;whiteSpace=wrap;html=1;fillColor=#9AC7BF;" vertex="1" parent="1">
          <mxGeometry x="312.5" y="691.75" width="10" height="10" as="geometry" />
        </mxCell>
        <mxCell id="BNl5geYrNrUiQaszXV6u-138" value="" style="rounded=0;whiteSpace=wrap;html=1;fillColor=#B3B3B3;" vertex="1" parent="1">
          <mxGeometry x="332.5" y="691.75" width="10" height="10" as="geometry" />
        </mxCell>
        <mxCell id="BNl5geYrNrUiQaszXV6u-139" value="" style="rounded=0;whiteSpace=wrap;html=1;fillColor=#B3B3B3;" vertex="1" parent="1">
          <mxGeometry x="352.5" y="691.75" width="10" height="10" as="geometry" />
        </mxCell>
        <mxCell id="BNl5geYrNrUiQaszXV6u-140" value="" style="rounded=0;whiteSpace=wrap;html=1;fillColor=#FFFFFF;" vertex="1" parent="1">
          <mxGeometry x="312.5" y="711.75" width="10" height="10" as="geometry" />
        </mxCell>
        <mxCell id="BNl5geYrNrUiQaszXV6u-141" value="" style="rounded=0;whiteSpace=wrap;html=1;fillColor=#E6E6E6;" vertex="1" parent="1">
          <mxGeometry x="332.5" y="711.75" width="10" height="10" as="geometry" />
        </mxCell>
        <mxCell id="BNl5geYrNrUiQaszXV6u-142" value="" style="rounded=0;whiteSpace=wrap;html=1;fillColor=#E6E6E6;" vertex="1" parent="1">
          <mxGeometry x="352.5" y="711.75" width="10" height="10" as="geometry" />
        </mxCell>
        <mxCell id="BNl5geYrNrUiQaszXV6u-143" value="" style="rounded=0;whiteSpace=wrap;html=1;fillColor=#FFFFFF;" vertex="1" parent="1">
          <mxGeometry x="312.5" y="731.75" width="10" height="10" as="geometry" />
        </mxCell>
        <mxCell id="BNl5geYrNrUiQaszXV6u-144" value="" style="rounded=0;whiteSpace=wrap;html=1;fillColor=#FFFFFF;" vertex="1" parent="1">
          <mxGeometry x="332.5" y="731.75" width="10" height="10" as="geometry" />
        </mxCell>
        <mxCell id="BNl5geYrNrUiQaszXV6u-145" value="" style="rounded=0;whiteSpace=wrap;html=1;fillColor=#4D4D4D;" vertex="1" parent="1">
          <mxGeometry x="352.5" y="731.75" width="10" height="10" as="geometry" />
        </mxCell>
        <mxCell id="BNl5geYrNrUiQaszXV6u-146" value="&lt;font style=&quot;font-size: 9px;&quot;&gt;...&lt;/font&gt;" style="text;html=1;align=center;verticalAlign=middle;whiteSpace=wrap;rounded=0;" vertex="1" parent="1">
          <mxGeometry x="320.5" y="713.75" width="15" as="geometry" />
        </mxCell>
        <mxCell id="BNl5geYrNrUiQaszXV6u-147" value="&lt;font style=&quot;font-size: 9px;&quot;&gt;...&lt;/font&gt;" style="text;html=1;align=center;verticalAlign=middle;whiteSpace=wrap;rounded=0;" vertex="1" parent="1">
          <mxGeometry x="340.5" y="713.75" width="15" as="geometry" />
        </mxCell>
        <mxCell id="BNl5geYrNrUiQaszXV6u-148" value="&lt;font style=&quot;font-size: 9px;&quot;&gt;...&lt;/font&gt;" style="text;html=1;align=center;verticalAlign=middle;whiteSpace=wrap;rounded=0;rotation=90;" vertex="1" parent="1">
          <mxGeometry x="354.5" y="726.75" width="15" as="geometry" />
        </mxCell>
        <mxCell id="BNl5geYrNrUiQaszXV6u-149" value="&lt;font style=&quot;font-size: 9px;&quot;&gt;...&lt;/font&gt;" style="text;html=1;align=center;verticalAlign=middle;whiteSpace=wrap;rounded=0;rotation=90;" vertex="1" parent="1">
          <mxGeometry x="333.5" y="726.75" width="15" as="geometry" />
        </mxCell>
        <mxCell id="BNl5geYrNrUiQaszXV6u-150" value="&lt;font style=&quot;font-size: 9px;&quot;&gt;...&lt;/font&gt;" style="text;html=1;align=center;verticalAlign=middle;whiteSpace=wrap;rounded=0;rotation=90;" vertex="1" parent="1">
          <mxGeometry x="313.5" y="726.75" width="15" as="geometry" />
        </mxCell>
        <mxCell id="BNl5geYrNrUiQaszXV6u-151" value="" style="shape=curlyBracket;whiteSpace=wrap;html=1;rounded=1;flipH=1;labelPosition=right;verticalLabelPosition=middle;align=left;verticalAlign=middle;" vertex="1" parent="1">
          <mxGeometry x="367.5" y="691.75" width="10" height="49" as="geometry" />
        </mxCell>
        <mxCell id="BNl5geYrNrUiQaszXV6u-152" value="" style="shape=curlyBracket;whiteSpace=wrap;html=1;rounded=1;flipH=1;labelPosition=right;verticalLabelPosition=middle;align=left;verticalAlign=middle;rotation=90;size=0.5;" vertex="1" parent="1">
          <mxGeometry x="332" y="725.25" width="10" height="52" as="geometry" />
        </mxCell>
        <mxCell id="BNl5geYrNrUiQaszXV6u-153" value="t" style="text;html=1;align=center;verticalAlign=middle;resizable=0;points=[];autosize=1;strokeColor=none;fillColor=none;" vertex="1" parent="1">
          <mxGeometry x="369.5" y="701.75" width="30" height="30" as="geometry" />
        </mxCell>
        <mxCell id="BNl5geYrNrUiQaszXV6u-154" value="&lt;div&gt;&lt;i style=&quot;&quot;&gt;&lt;font style=&quot;font-size: 10px;&quot;&gt;η&lt;/font&gt;&lt;/i&gt;&lt;/div&gt;" style="text;html=1;align=center;verticalAlign=middle;resizable=0;points=[];autosize=1;strokeColor=none;fillColor=none;" vertex="1" parent="1">
          <mxGeometry x="288" y="664.75" width="30" height="30" as="geometry" />
        </mxCell>
        <mxCell id="BNl5geYrNrUiQaszXV6u-155" value="t" style="text;html=1;align=center;verticalAlign=middle;resizable=0;points=[];autosize=1;strokeColor=none;fillColor=none;" vertex="1" parent="1">
          <mxGeometry x="320.5" y="747.25" width="30" height="30" as="geometry" />
        </mxCell>
        <mxCell id="BNl5geYrNrUiQaszXV6u-156" style="edgeStyle=orthogonalEdgeStyle;rounded=0;orthogonalLoop=1;jettySize=auto;html=1;entryX=0.5;entryY=0;entryDx=0;entryDy=0;" edge="1" parent="1" source="BNl5geYrNrUiQaszXV6u-157" target="BNl5geYrNrUiQaszXV6u-206">
          <mxGeometry relative="1" as="geometry" />
        </mxCell>
        <mxCell id="BNl5geYrNrUiQaszXV6u-157" value="相干空间向量计算" style="rounded=1;whiteSpace=wrap;html=1;" vertex="1" parent="1">
          <mxGeometry x="58.5" y="805" width="120" height="30" as="geometry" />
        </mxCell>
        <mxCell id="BNl5geYrNrUiQaszXV6u-158" style="edgeStyle=orthogonalEdgeStyle;rounded=0;orthogonalLoop=1;jettySize=auto;html=1;entryX=0.5;entryY=0;entryDx=0;entryDy=0;" edge="1" parent="1" source="BNl5geYrNrUiQaszXV6u-159" target="BNl5geYrNrUiQaszXV6u-208">
          <mxGeometry relative="1" as="geometry" />
        </mxCell>
        <mxCell id="BNl5geYrNrUiQaszXV6u-159" value="相干时间向量计算" style="rounded=1;whiteSpace=wrap;html=1;" vertex="1" parent="1">
          <mxGeometry x="282" y="805" width="120" height="30" as="geometry" />
        </mxCell>
        <mxCell id="BNl5geYrNrUiQaszXV6u-160" style="edgeStyle=orthogonalEdgeStyle;rounded=0;orthogonalLoop=1;jettySize=auto;html=1;entryX=0;entryY=0.5;entryDx=0;entryDy=0;" edge="1" parent="1" source="BNl5geYrNrUiQaszXV6u-162" target="BNl5geYrNrUiQaszXV6u-159">
          <mxGeometry relative="1" as="geometry" />
        </mxCell>
        <mxCell id="BNl5geYrNrUiQaszXV6u-161" style="edgeStyle=orthogonalEdgeStyle;rounded=0;orthogonalLoop=1;jettySize=auto;html=1;entryX=1;entryY=0.5;entryDx=0;entryDy=0;" edge="1" parent="1" source="BNl5geYrNrUiQaszXV6u-162" target="BNl5geYrNrUiQaszXV6u-157">
          <mxGeometry relative="1" as="geometry" />
        </mxCell>
        <mxCell id="BNl5geYrNrUiQaszXV6u-162" value="阈值η0" style="rounded=1;whiteSpace=wrap;html=1;" vertex="1" parent="1">
          <mxGeometry x="200" y="810" width="60" height="20" as="geometry" />
        </mxCell>
        <mxCell id="BNl5geYrNrUiQaszXV6u-163" value="" style="group" vertex="1" connectable="0" parent="1">
          <mxGeometry x="57" y="911" width="117" height="116" as="geometry" />
        </mxCell>
        <mxCell id="BNl5geYrNrUiQaszXV6u-164" value="" style="rounded=1;whiteSpace=wrap;html=1;dashed=1;dashPattern=8 8;" vertex="1" parent="BNl5geYrNrUiQaszXV6u-163">
          <mxGeometry x="5" y="9" width="110" height="100" as="geometry" />
        </mxCell>
        <mxCell id="BNl5geYrNrUiQaszXV6u-165" value="" style="rounded=0;whiteSpace=wrap;html=1;fillColor=#66B2FF;" vertex="1" parent="BNl5geYrNrUiQaszXV6u-163">
          <mxGeometry x="30" y="30" width="10" height="10" as="geometry" />
        </mxCell>
        <mxCell id="BNl5geYrNrUiQaszXV6u-166" value="" style="rounded=0;whiteSpace=wrap;html=1;fillColor=#66B2FF;" vertex="1" parent="BNl5geYrNrUiQaszXV6u-163">
          <mxGeometry x="50" y="30" width="10" height="10" as="geometry" />
        </mxCell>
        <mxCell id="BNl5geYrNrUiQaszXV6u-167" value="" style="rounded=0;whiteSpace=wrap;html=1;fillColor=#66B2FF;" vertex="1" parent="BNl5geYrNrUiQaszXV6u-163">
          <mxGeometry x="70" y="30" width="10" height="10" as="geometry" />
        </mxCell>
        <mxCell id="BNl5geYrNrUiQaszXV6u-168" value="" style="rounded=0;whiteSpace=wrap;html=1;fillColor=#3333FF;" vertex="1" parent="BNl5geYrNrUiQaszXV6u-163">
          <mxGeometry x="30" y="50" width="10" height="10" as="geometry" />
        </mxCell>
        <mxCell id="BNl5geYrNrUiQaszXV6u-169" value="" style="rounded=0;whiteSpace=wrap;html=1;fillColor=#3333FF;" vertex="1" parent="BNl5geYrNrUiQaszXV6u-163">
          <mxGeometry x="50" y="50" width="10" height="10" as="geometry" />
        </mxCell>
        <mxCell id="BNl5geYrNrUiQaszXV6u-170" value="" style="rounded=0;whiteSpace=wrap;html=1;fillColor=#3333FF;" vertex="1" parent="BNl5geYrNrUiQaszXV6u-163">
          <mxGeometry x="70" y="50" width="10" height="10" as="geometry" />
        </mxCell>
        <mxCell id="BNl5geYrNrUiQaszXV6u-171" value="" style="rounded=0;whiteSpace=wrap;html=1;fillColor=#FF3399;" vertex="1" parent="BNl5geYrNrUiQaszXV6u-163">
          <mxGeometry x="30" y="70" width="10" height="10" as="geometry" />
        </mxCell>
        <mxCell id="BNl5geYrNrUiQaszXV6u-172" value="" style="rounded=0;whiteSpace=wrap;html=1;fillColor=#FF3399;" vertex="1" parent="BNl5geYrNrUiQaszXV6u-163">
          <mxGeometry x="50" y="70" width="10" height="10" as="geometry" />
        </mxCell>
        <mxCell id="BNl5geYrNrUiQaszXV6u-173" value="" style="rounded=0;whiteSpace=wrap;html=1;fillColor=#FF3399;" vertex="1" parent="BNl5geYrNrUiQaszXV6u-163">
          <mxGeometry x="70" y="70" width="10" height="10" as="geometry" />
        </mxCell>
        <mxCell id="BNl5geYrNrUiQaszXV6u-174" value="&lt;font style=&quot;font-size: 9px;&quot;&gt;...&lt;/font&gt;" style="text;html=1;align=center;verticalAlign=middle;whiteSpace=wrap;rounded=0;" vertex="1" parent="BNl5geYrNrUiQaszXV6u-163">
          <mxGeometry x="38" y="52" width="15" as="geometry" />
        </mxCell>
        <mxCell id="BNl5geYrNrUiQaszXV6u-175" value="&lt;font style=&quot;font-size: 9px;&quot;&gt;...&lt;/font&gt;" style="text;html=1;align=center;verticalAlign=middle;whiteSpace=wrap;rounded=0;" vertex="1" parent="BNl5geYrNrUiQaszXV6u-163">
          <mxGeometry x="58" y="52" width="15" as="geometry" />
        </mxCell>
        <mxCell id="BNl5geYrNrUiQaszXV6u-176" value="&lt;font style=&quot;font-size: 9px;&quot;&gt;...&lt;/font&gt;" style="text;html=1;align=center;verticalAlign=middle;whiteSpace=wrap;rounded=0;rotation=90;" vertex="1" parent="BNl5geYrNrUiQaszXV6u-163">
          <mxGeometry x="72" y="65" width="15" as="geometry" />
        </mxCell>
        <mxCell id="BNl5geYrNrUiQaszXV6u-177" value="&lt;font style=&quot;font-size: 9px;&quot;&gt;...&lt;/font&gt;" style="text;html=1;align=center;verticalAlign=middle;whiteSpace=wrap;rounded=0;rotation=90;" vertex="1" parent="BNl5geYrNrUiQaszXV6u-163">
          <mxGeometry x="51" y="65" width="15" as="geometry" />
        </mxCell>
        <mxCell id="BNl5geYrNrUiQaszXV6u-178" value="&lt;font style=&quot;font-size: 9px;&quot;&gt;...&lt;/font&gt;" style="text;html=1;align=center;verticalAlign=middle;whiteSpace=wrap;rounded=0;rotation=90;" vertex="1" parent="BNl5geYrNrUiQaszXV6u-163">
          <mxGeometry x="31" y="65" width="15" as="geometry" />
        </mxCell>
        <mxCell id="BNl5geYrNrUiQaszXV6u-179" value="&lt;span style=&quot;font-size: 7px;&quot;&gt;&lt;i&gt;ScEmbedding&lt;/i&gt;&lt;/span&gt;" style="text;html=1;align=center;verticalAlign=middle;resizable=0;points=[];autosize=1;strokeColor=none;fillColor=none;" vertex="1" parent="BNl5geYrNrUiQaszXV6u-163">
          <mxGeometry x="-1" width="70" height="30" as="geometry" />
        </mxCell>
        <mxCell id="BNl5geYrNrUiQaszXV6u-180" value="" style="shape=curlyBracket;whiteSpace=wrap;html=1;rounded=1;flipH=1;labelPosition=right;verticalLabelPosition=middle;align=left;verticalAlign=middle;" vertex="1" parent="BNl5geYrNrUiQaszXV6u-163">
          <mxGeometry x="85" y="30" width="10" height="49" as="geometry" />
        </mxCell>
        <mxCell id="BNl5geYrNrUiQaszXV6u-181" value="" style="shape=curlyBracket;whiteSpace=wrap;html=1;rounded=1;flipH=1;labelPosition=right;verticalLabelPosition=middle;align=left;verticalAlign=middle;rotation=90;size=0.5;" vertex="1" parent="BNl5geYrNrUiQaszXV6u-163">
          <mxGeometry x="49.5" y="63.5" width="10" height="52" as="geometry" />
        </mxCell>
        <mxCell id="BNl5geYrNrUiQaszXV6u-182" value="n" style="text;html=1;align=center;verticalAlign=middle;resizable=0;points=[];autosize=1;strokeColor=none;fillColor=none;" vertex="1" parent="BNl5geYrNrUiQaszXV6u-163">
          <mxGeometry x="87" y="40" width="30" height="30" as="geometry" />
        </mxCell>
        <mxCell id="BNl5geYrNrUiQaszXV6u-183" value="d" style="text;html=1;align=center;verticalAlign=middle;resizable=0;points=[];autosize=1;strokeColor=none;fillColor=none;" vertex="1" parent="BNl5geYrNrUiQaszXV6u-163">
          <mxGeometry x="39" y="86" width="30" height="30" as="geometry" />
        </mxCell>
        <mxCell id="BNl5geYrNrUiQaszXV6u-184" value="" style="group" vertex="1" connectable="0" parent="1">
          <mxGeometry x="282.5" y="911" width="117" height="116" as="geometry" />
        </mxCell>
        <mxCell id="BNl5geYrNrUiQaszXV6u-185" value="" style="rounded=1;whiteSpace=wrap;html=1;dashed=1;dashPattern=8 8;" vertex="1" parent="BNl5geYrNrUiQaszXV6u-184">
          <mxGeometry x="5" y="9" width="110" height="100" as="geometry" />
        </mxCell>
        <mxCell id="BNl5geYrNrUiQaszXV6u-186" value="" style="rounded=0;whiteSpace=wrap;html=1;fillColor=#66B2FF;" vertex="1" parent="BNl5geYrNrUiQaszXV6u-184">
          <mxGeometry x="30" y="30" width="10" height="10" as="geometry" />
        </mxCell>
        <mxCell id="BNl5geYrNrUiQaszXV6u-187" value="" style="rounded=0;whiteSpace=wrap;html=1;fillColor=#66B2FF;" vertex="1" parent="BNl5geYrNrUiQaszXV6u-184">
          <mxGeometry x="50" y="30" width="10" height="10" as="geometry" />
        </mxCell>
        <mxCell id="BNl5geYrNrUiQaszXV6u-188" value="" style="rounded=0;whiteSpace=wrap;html=1;fillColor=#66B2FF;" vertex="1" parent="BNl5geYrNrUiQaszXV6u-184">
          <mxGeometry x="70" y="30" width="10" height="10" as="geometry" />
        </mxCell>
        <mxCell id="BNl5geYrNrUiQaszXV6u-189" value="" style="rounded=0;whiteSpace=wrap;html=1;fillColor=#3333FF;" vertex="1" parent="BNl5geYrNrUiQaszXV6u-184">
          <mxGeometry x="30" y="50" width="10" height="10" as="geometry" />
        </mxCell>
        <mxCell id="BNl5geYrNrUiQaszXV6u-190" value="" style="rounded=0;whiteSpace=wrap;html=1;fillColor=#3333FF;" vertex="1" parent="BNl5geYrNrUiQaszXV6u-184">
          <mxGeometry x="50" y="50" width="10" height="10" as="geometry" />
        </mxCell>
        <mxCell id="BNl5geYrNrUiQaszXV6u-191" value="" style="rounded=0;whiteSpace=wrap;html=1;fillColor=#3333FF;" vertex="1" parent="BNl5geYrNrUiQaszXV6u-184">
          <mxGeometry x="70" y="50" width="10" height="10" as="geometry" />
        </mxCell>
        <mxCell id="BNl5geYrNrUiQaszXV6u-192" value="" style="rounded=0;whiteSpace=wrap;html=1;fillColor=#FF3399;" vertex="1" parent="BNl5geYrNrUiQaszXV6u-184">
          <mxGeometry x="30" y="70" width="10" height="10" as="geometry" />
        </mxCell>
        <mxCell id="BNl5geYrNrUiQaszXV6u-193" value="" style="rounded=0;whiteSpace=wrap;html=1;fillColor=#FF3399;" vertex="1" parent="BNl5geYrNrUiQaszXV6u-184">
          <mxGeometry x="50" y="70" width="10" height="10" as="geometry" />
        </mxCell>
        <mxCell id="BNl5geYrNrUiQaszXV6u-194" value="" style="rounded=0;whiteSpace=wrap;html=1;fillColor=#FF3399;" vertex="1" parent="BNl5geYrNrUiQaszXV6u-184">
          <mxGeometry x="70" y="70" width="10" height="10" as="geometry" />
        </mxCell>
        <mxCell id="BNl5geYrNrUiQaszXV6u-195" value="&lt;font style=&quot;font-size: 9px;&quot;&gt;...&lt;/font&gt;" style="text;html=1;align=center;verticalAlign=middle;whiteSpace=wrap;rounded=0;" vertex="1" parent="BNl5geYrNrUiQaszXV6u-184">
          <mxGeometry x="38" y="52" width="15" as="geometry" />
        </mxCell>
        <mxCell id="BNl5geYrNrUiQaszXV6u-196" value="&lt;font style=&quot;font-size: 9px;&quot;&gt;...&lt;/font&gt;" style="text;html=1;align=center;verticalAlign=middle;whiteSpace=wrap;rounded=0;" vertex="1" parent="BNl5geYrNrUiQaszXV6u-184">
          <mxGeometry x="58" y="52" width="15" as="geometry" />
        </mxCell>
        <mxCell id="BNl5geYrNrUiQaszXV6u-197" value="&lt;font style=&quot;font-size: 9px;&quot;&gt;...&lt;/font&gt;" style="text;html=1;align=center;verticalAlign=middle;whiteSpace=wrap;rounded=0;rotation=90;" vertex="1" parent="BNl5geYrNrUiQaszXV6u-184">
          <mxGeometry x="72" y="65" width="15" as="geometry" />
        </mxCell>
        <mxCell id="BNl5geYrNrUiQaszXV6u-198" value="&lt;font style=&quot;font-size: 9px;&quot;&gt;...&lt;/font&gt;" style="text;html=1;align=center;verticalAlign=middle;whiteSpace=wrap;rounded=0;rotation=90;" vertex="1" parent="BNl5geYrNrUiQaszXV6u-184">
          <mxGeometry x="51" y="65" width="15" as="geometry" />
        </mxCell>
        <mxCell id="BNl5geYrNrUiQaszXV6u-199" value="&lt;font style=&quot;font-size: 9px;&quot;&gt;...&lt;/font&gt;" style="text;html=1;align=center;verticalAlign=middle;whiteSpace=wrap;rounded=0;rotation=90;" vertex="1" parent="BNl5geYrNrUiQaszXV6u-184">
          <mxGeometry x="31" y="65" width="15" as="geometry" />
        </mxCell>
        <mxCell id="BNl5geYrNrUiQaszXV6u-200" value="&lt;span style=&quot;font-size: 7px;&quot;&gt;&lt;i&gt;TcEmbedding&lt;/i&gt;&lt;/span&gt;" style="text;html=1;align=center;verticalAlign=middle;resizable=0;points=[];autosize=1;strokeColor=none;fillColor=none;" vertex="1" parent="BNl5geYrNrUiQaszXV6u-184">
          <mxGeometry x="-1" width="70" height="30" as="geometry" />
        </mxCell>
        <mxCell id="BNl5geYrNrUiQaszXV6u-201" value="" style="shape=curlyBracket;whiteSpace=wrap;html=1;rounded=1;flipH=1;labelPosition=right;verticalLabelPosition=middle;align=left;verticalAlign=middle;" vertex="1" parent="BNl5geYrNrUiQaszXV6u-184">
          <mxGeometry x="85" y="30" width="10" height="49" as="geometry" />
        </mxCell>
        <mxCell id="BNl5geYrNrUiQaszXV6u-202" value="" style="shape=curlyBracket;whiteSpace=wrap;html=1;rounded=1;flipH=1;labelPosition=right;verticalLabelPosition=middle;align=left;verticalAlign=middle;rotation=90;size=0.5;" vertex="1" parent="BNl5geYrNrUiQaszXV6u-184">
          <mxGeometry x="49.5" y="63.5" width="10" height="52" as="geometry" />
        </mxCell>
        <mxCell id="BNl5geYrNrUiQaszXV6u-203" value="t" style="text;html=1;align=center;verticalAlign=middle;resizable=0;points=[];autosize=1;strokeColor=none;fillColor=none;" vertex="1" parent="BNl5geYrNrUiQaszXV6u-184">
          <mxGeometry x="87" y="40" width="30" height="30" as="geometry" />
        </mxCell>
        <mxCell id="BNl5geYrNrUiQaszXV6u-204" value="d" style="text;html=1;align=center;verticalAlign=middle;resizable=0;points=[];autosize=1;strokeColor=none;fillColor=none;" vertex="1" parent="BNl5geYrNrUiQaszXV6u-184">
          <mxGeometry x="39" y="86" width="30" height="30" as="geometry" />
        </mxCell>
        <mxCell id="BNl5geYrNrUiQaszXV6u-205" style="edgeStyle=orthogonalEdgeStyle;rounded=0;orthogonalLoop=1;jettySize=auto;html=1;" edge="1" parent="1" source="BNl5geYrNrUiQaszXV6u-206" target="BNl5geYrNrUiQaszXV6u-164">
          <mxGeometry relative="1" as="geometry" />
        </mxCell>
        <mxCell id="BNl5geYrNrUiQaszXV6u-206" value="高纬映射" style="rounded=1;whiteSpace=wrap;html=1;" vertex="1" parent="1">
          <mxGeometry x="57.5" y="858" width="120" height="30" as="geometry" />
        </mxCell>
        <mxCell id="BNl5geYrNrUiQaszXV6u-207" style="edgeStyle=orthogonalEdgeStyle;rounded=0;orthogonalLoop=1;jettySize=auto;html=1;" edge="1" parent="1" source="BNl5geYrNrUiQaszXV6u-208" target="BNl5geYrNrUiQaszXV6u-185">
          <mxGeometry relative="1" as="geometry" />
        </mxCell>
        <mxCell id="BNl5geYrNrUiQaszXV6u-208" value="高纬映射" style="rounded=1;whiteSpace=wrap;html=1;" vertex="1" parent="1">
          <mxGeometry x="282.5" y="858" width="120" height="30" as="geometry" />
        </mxCell>
        <mxCell id="BNl5geYrNrUiQaszXV6u-209" value="" style="group" vertex="1" connectable="0" parent="1">
          <mxGeometry x="410" y="341" width="129" height="116" as="geometry" />
        </mxCell>
        <mxCell id="BNl5geYrNrUiQaszXV6u-210" value="" style="rounded=1;whiteSpace=wrap;html=1;dashed=1;dashPattern=8 8;" vertex="1" parent="BNl5geYrNrUiQaszXV6u-209">
          <mxGeometry x="5" y="9" width="110" height="100" as="geometry" />
        </mxCell>
        <mxCell id="BNl5geYrNrUiQaszXV6u-211" value="" style="rounded=0;whiteSpace=wrap;html=1;fillColor=#66B2FF;" vertex="1" parent="BNl5geYrNrUiQaszXV6u-209">
          <mxGeometry x="30" y="30" width="10" height="10" as="geometry" />
        </mxCell>
        <mxCell id="BNl5geYrNrUiQaszXV6u-212" value="" style="rounded=0;whiteSpace=wrap;html=1;fillColor=#66B2FF;" vertex="1" parent="BNl5geYrNrUiQaszXV6u-209">
          <mxGeometry x="50" y="30" width="10" height="10" as="geometry" />
        </mxCell>
        <mxCell id="BNl5geYrNrUiQaszXV6u-213" value="" style="rounded=0;whiteSpace=wrap;html=1;fillColor=#66B2FF;" vertex="1" parent="BNl5geYrNrUiQaszXV6u-209">
          <mxGeometry x="70" y="30" width="10" height="10" as="geometry" />
        </mxCell>
        <mxCell id="BNl5geYrNrUiQaszXV6u-214" value="" style="rounded=0;whiteSpace=wrap;html=1;fillColor=#3333FF;" vertex="1" parent="BNl5geYrNrUiQaszXV6u-209">
          <mxGeometry x="30" y="50" width="10" height="10" as="geometry" />
        </mxCell>
        <mxCell id="BNl5geYrNrUiQaszXV6u-215" value="" style="rounded=0;whiteSpace=wrap;html=1;fillColor=#3333FF;" vertex="1" parent="BNl5geYrNrUiQaszXV6u-209">
          <mxGeometry x="50" y="50" width="10" height="10" as="geometry" />
        </mxCell>
        <mxCell id="BNl5geYrNrUiQaszXV6u-216" value="" style="rounded=0;whiteSpace=wrap;html=1;fillColor=#3333FF;" vertex="1" parent="BNl5geYrNrUiQaszXV6u-209">
          <mxGeometry x="70" y="50" width="10" height="10" as="geometry" />
        </mxCell>
        <mxCell id="BNl5geYrNrUiQaszXV6u-217" value="" style="rounded=0;whiteSpace=wrap;html=1;fillColor=#FF3399;" vertex="1" parent="BNl5geYrNrUiQaszXV6u-209">
          <mxGeometry x="30" y="70" width="10" height="10" as="geometry" />
        </mxCell>
        <mxCell id="BNl5geYrNrUiQaszXV6u-218" value="" style="rounded=0;whiteSpace=wrap;html=1;fillColor=#FF3399;" vertex="1" parent="BNl5geYrNrUiQaszXV6u-209">
          <mxGeometry x="50" y="70" width="10" height="10" as="geometry" />
        </mxCell>
        <mxCell id="BNl5geYrNrUiQaszXV6u-219" value="" style="rounded=0;whiteSpace=wrap;html=1;fillColor=#FF3399;" vertex="1" parent="BNl5geYrNrUiQaszXV6u-209">
          <mxGeometry x="70" y="70" width="10" height="10" as="geometry" />
        </mxCell>
        <mxCell id="BNl5geYrNrUiQaszXV6u-220" value="&lt;font style=&quot;font-size: 9px;&quot;&gt;...&lt;/font&gt;" style="text;html=1;align=center;verticalAlign=middle;whiteSpace=wrap;rounded=0;" vertex="1" parent="BNl5geYrNrUiQaszXV6u-209">
          <mxGeometry x="38" y="52" width="15" as="geometry" />
        </mxCell>
        <mxCell id="BNl5geYrNrUiQaszXV6u-221" value="&lt;font style=&quot;font-size: 9px;&quot;&gt;...&lt;/font&gt;" style="text;html=1;align=center;verticalAlign=middle;whiteSpace=wrap;rounded=0;" vertex="1" parent="BNl5geYrNrUiQaszXV6u-209">
          <mxGeometry x="58" y="52" width="15" as="geometry" />
        </mxCell>
        <mxCell id="BNl5geYrNrUiQaszXV6u-222" value="&lt;font style=&quot;font-size: 9px;&quot;&gt;...&lt;/font&gt;" style="text;html=1;align=center;verticalAlign=middle;whiteSpace=wrap;rounded=0;rotation=90;" vertex="1" parent="BNl5geYrNrUiQaszXV6u-209">
          <mxGeometry x="72" y="65" width="15" as="geometry" />
        </mxCell>
        <mxCell id="BNl5geYrNrUiQaszXV6u-223" value="&lt;font style=&quot;font-size: 9px;&quot;&gt;...&lt;/font&gt;" style="text;html=1;align=center;verticalAlign=middle;whiteSpace=wrap;rounded=0;rotation=90;" vertex="1" parent="BNl5geYrNrUiQaszXV6u-209">
          <mxGeometry x="51" y="65" width="15" as="geometry" />
        </mxCell>
        <mxCell id="BNl5geYrNrUiQaszXV6u-224" value="&lt;font style=&quot;font-size: 9px;&quot;&gt;...&lt;/font&gt;" style="text;html=1;align=center;verticalAlign=middle;whiteSpace=wrap;rounded=0;rotation=90;" vertex="1" parent="BNl5geYrNrUiQaszXV6u-209">
          <mxGeometry x="31" y="65" width="15" as="geometry" />
        </mxCell>
        <mxCell id="BNl5geYrNrUiQaszXV6u-225" value="&lt;font style=&quot;font-size: 7px;&quot;&gt;&lt;i&gt;CIR&lt;/i&gt;&lt;/font&gt;" style="text;html=1;align=center;verticalAlign=middle;resizable=0;points=[];autosize=1;strokeColor=none;fillColor=none;" vertex="1" parent="BNl5geYrNrUiQaszXV6u-209">
          <mxGeometry width="40" height="30" as="geometry" />
        </mxCell>
        <mxCell id="BNl5geYrNrUiQaszXV6u-226" value="" style="shape=curlyBracket;whiteSpace=wrap;html=1;rounded=1;flipH=1;labelPosition=right;verticalLabelPosition=middle;align=left;verticalAlign=middle;" vertex="1" parent="BNl5geYrNrUiQaszXV6u-209">
          <mxGeometry x="85" y="30" width="10" height="49" as="geometry" />
        </mxCell>
        <mxCell id="BNl5geYrNrUiQaszXV6u-227" value="" style="shape=curlyBracket;whiteSpace=wrap;html=1;rounded=1;flipH=1;labelPosition=right;verticalLabelPosition=middle;align=left;verticalAlign=middle;rotation=90;size=0.5;" vertex="1" parent="BNl5geYrNrUiQaszXV6u-209">
          <mxGeometry x="49.5" y="63.5" width="10" height="52" as="geometry" />
        </mxCell>
        <mxCell id="BNl5geYrNrUiQaszXV6u-228" value="n" style="text;html=1;align=center;verticalAlign=middle;resizable=0;points=[];autosize=1;strokeColor=none;fillColor=none;" vertex="1" parent="BNl5geYrNrUiQaszXV6u-209">
          <mxGeometry x="87" y="40" width="30" height="30" as="geometry" />
        </mxCell>
        <mxCell id="BNl5geYrNrUiQaszXV6u-229" value="t" style="text;html=1;align=center;verticalAlign=middle;resizable=0;points=[];autosize=1;strokeColor=none;fillColor=none;" vertex="1" parent="BNl5geYrNrUiQaszXV6u-209">
          <mxGeometry x="39" y="86" width="30" height="30" as="geometry" />
        </mxCell>
        <mxCell id="BNl5geYrNrUiQaszXV6u-230" value="" style="group" vertex="1" connectable="0" parent="1">
          <mxGeometry x="660" y="341" width="129" height="116" as="geometry" />
        </mxCell>
        <mxCell id="BNl5geYrNrUiQaszXV6u-231" value="" style="rounded=1;whiteSpace=wrap;html=1;dashed=1;dashPattern=8 8;" vertex="1" parent="BNl5geYrNrUiQaszXV6u-230">
          <mxGeometry x="5" y="9" width="110" height="100" as="geometry" />
        </mxCell>
        <mxCell id="BNl5geYrNrUiQaszXV6u-232" value="" style="rounded=0;whiteSpace=wrap;html=1;fillColor=#66B2FF;" vertex="1" parent="BNl5geYrNrUiQaszXV6u-230">
          <mxGeometry x="30" y="30" width="10" height="10" as="geometry" />
        </mxCell>
        <mxCell id="BNl5geYrNrUiQaszXV6u-233" value="" style="rounded=0;whiteSpace=wrap;html=1;fillColor=#66B2FF;" vertex="1" parent="BNl5geYrNrUiQaszXV6u-230">
          <mxGeometry x="50" y="30" width="10" height="10" as="geometry" />
        </mxCell>
        <mxCell id="BNl5geYrNrUiQaszXV6u-234" value="" style="rounded=0;whiteSpace=wrap;html=1;fillColor=#66B2FF;" vertex="1" parent="BNl5geYrNrUiQaszXV6u-230">
          <mxGeometry x="70" y="30" width="10" height="10" as="geometry" />
        </mxCell>
        <mxCell id="BNl5geYrNrUiQaszXV6u-235" value="" style="rounded=0;whiteSpace=wrap;html=1;fillColor=#3333FF;" vertex="1" parent="BNl5geYrNrUiQaszXV6u-230">
          <mxGeometry x="30" y="50" width="10" height="10" as="geometry" />
        </mxCell>
        <mxCell id="BNl5geYrNrUiQaszXV6u-236" value="" style="rounded=0;whiteSpace=wrap;html=1;fillColor=#3333FF;" vertex="1" parent="BNl5geYrNrUiQaszXV6u-230">
          <mxGeometry x="50" y="50" width="10" height="10" as="geometry" />
        </mxCell>
        <mxCell id="BNl5geYrNrUiQaszXV6u-237" value="" style="rounded=0;whiteSpace=wrap;html=1;fillColor=#3333FF;" vertex="1" parent="BNl5geYrNrUiQaszXV6u-230">
          <mxGeometry x="70" y="50" width="10" height="10" as="geometry" />
        </mxCell>
        <mxCell id="BNl5geYrNrUiQaszXV6u-238" value="" style="rounded=0;whiteSpace=wrap;html=1;fillColor=#FF3399;" vertex="1" parent="BNl5geYrNrUiQaszXV6u-230">
          <mxGeometry x="30" y="70" width="10" height="10" as="geometry" />
        </mxCell>
        <mxCell id="BNl5geYrNrUiQaszXV6u-239" value="" style="rounded=0;whiteSpace=wrap;html=1;fillColor=#FF3399;" vertex="1" parent="BNl5geYrNrUiQaszXV6u-230">
          <mxGeometry x="50" y="70" width="10" height="10" as="geometry" />
        </mxCell>
        <mxCell id="BNl5geYrNrUiQaszXV6u-240" value="" style="rounded=0;whiteSpace=wrap;html=1;fillColor=#FF3399;" vertex="1" parent="BNl5geYrNrUiQaszXV6u-230">
          <mxGeometry x="70" y="70" width="10" height="10" as="geometry" />
        </mxCell>
        <mxCell id="BNl5geYrNrUiQaszXV6u-241" value="&lt;font style=&quot;font-size: 9px;&quot;&gt;...&lt;/font&gt;" style="text;html=1;align=center;verticalAlign=middle;whiteSpace=wrap;rounded=0;" vertex="1" parent="BNl5geYrNrUiQaszXV6u-230">
          <mxGeometry x="38" y="52" width="15" as="geometry" />
        </mxCell>
        <mxCell id="BNl5geYrNrUiQaszXV6u-242" value="&lt;font style=&quot;font-size: 9px;&quot;&gt;...&lt;/font&gt;" style="text;html=1;align=center;verticalAlign=middle;whiteSpace=wrap;rounded=0;" vertex="1" parent="BNl5geYrNrUiQaszXV6u-230">
          <mxGeometry x="58" y="52" width="15" as="geometry" />
        </mxCell>
        <mxCell id="BNl5geYrNrUiQaszXV6u-243" value="&lt;font style=&quot;font-size: 9px;&quot;&gt;...&lt;/font&gt;" style="text;html=1;align=center;verticalAlign=middle;whiteSpace=wrap;rounded=0;rotation=90;" vertex="1" parent="BNl5geYrNrUiQaszXV6u-230">
          <mxGeometry x="72" y="65" width="15" as="geometry" />
        </mxCell>
        <mxCell id="BNl5geYrNrUiQaszXV6u-244" value="&lt;font style=&quot;font-size: 9px;&quot;&gt;...&lt;/font&gt;" style="text;html=1;align=center;verticalAlign=middle;whiteSpace=wrap;rounded=0;rotation=90;" vertex="1" parent="BNl5geYrNrUiQaszXV6u-230">
          <mxGeometry x="51" y="65" width="15" as="geometry" />
        </mxCell>
        <mxCell id="BNl5geYrNrUiQaszXV6u-245" value="&lt;font style=&quot;font-size: 9px;&quot;&gt;...&lt;/font&gt;" style="text;html=1;align=center;verticalAlign=middle;whiteSpace=wrap;rounded=0;rotation=90;" vertex="1" parent="BNl5geYrNrUiQaszXV6u-230">
          <mxGeometry x="31" y="65" width="15" as="geometry" />
        </mxCell>
        <mxCell id="BNl5geYrNrUiQaszXV6u-246" value="&lt;font style=&quot;font-size: 7px;&quot;&gt;&lt;i&gt;CIR&lt;/i&gt;&lt;/font&gt;" style="text;html=1;align=center;verticalAlign=middle;resizable=0;points=[];autosize=1;strokeColor=none;fillColor=none;" vertex="1" parent="BNl5geYrNrUiQaszXV6u-230">
          <mxGeometry width="40" height="30" as="geometry" />
        </mxCell>
        <mxCell id="BNl5geYrNrUiQaszXV6u-247" value="" style="shape=curlyBracket;whiteSpace=wrap;html=1;rounded=1;flipH=1;labelPosition=right;verticalLabelPosition=middle;align=left;verticalAlign=middle;" vertex="1" parent="BNl5geYrNrUiQaszXV6u-230">
          <mxGeometry x="85" y="30" width="10" height="49" as="geometry" />
        </mxCell>
        <mxCell id="BNl5geYrNrUiQaszXV6u-248" value="" style="shape=curlyBracket;whiteSpace=wrap;html=1;rounded=1;flipH=1;labelPosition=right;verticalLabelPosition=middle;align=left;verticalAlign=middle;rotation=90;size=0.5;" vertex="1" parent="BNl5geYrNrUiQaszXV6u-230">
          <mxGeometry x="49.5" y="63.5" width="10" height="52" as="geometry" />
        </mxCell>
        <mxCell id="BNl5geYrNrUiQaszXV6u-249" value="t" style="text;html=1;align=center;verticalAlign=middle;resizable=0;points=[];autosize=1;strokeColor=none;fillColor=none;" vertex="1" parent="BNl5geYrNrUiQaszXV6u-230">
          <mxGeometry x="87" y="40" width="30" height="30" as="geometry" />
        </mxCell>
        <mxCell id="BNl5geYrNrUiQaszXV6u-250" value="n" style="text;html=1;align=center;verticalAlign=middle;resizable=0;points=[];autosize=1;strokeColor=none;fillColor=none;" vertex="1" parent="BNl5geYrNrUiQaszXV6u-230">
          <mxGeometry x="39" y="86" width="30" height="30" as="geometry" />
        </mxCell>
        <mxCell id="BNl5geYrNrUiQaszXV6u-272" style="edgeStyle=orthogonalEdgeStyle;rounded=0;orthogonalLoop=1;jettySize=auto;html=1;entryX=0.5;entryY=0;entryDx=0;entryDy=0;exitX=0.5;exitY=1;exitDx=0;exitDy=0;" edge="1" parent="1" source="BNl5geYrNrUiQaszXV6u-210" target="BNl5geYrNrUiQaszXV6u-274">
          <mxGeometry relative="1" as="geometry">
            <mxPoint x="464" y="521" as="targetPoint" />
          </mxGeometry>
        </mxCell>
        <mxCell id="BNl5geYrNrUiQaszXV6u-431" style="edgeStyle=orthogonalEdgeStyle;rounded=0;orthogonalLoop=1;jettySize=auto;html=1;entryX=0.5;entryY=0;entryDx=0;entryDy=0;" edge="1" parent="1" source="BNl5geYrNrUiQaszXV6u-274" target="BNl5geYrNrUiQaszXV6u-411">
          <mxGeometry relative="1" as="geometry" />
        </mxCell>
        <mxCell id="BNl5geYrNrUiQaszXV6u-274" value="Lp范数计算" style="rounded=1;whiteSpace=wrap;html=1;" vertex="1" parent="1">
          <mxGeometry x="430" y="484" width="90" height="20" as="geometry" />
        </mxCell>
        <mxCell id="BNl5geYrNrUiQaszXV6u-433" style="edgeStyle=orthogonalEdgeStyle;rounded=0;orthogonalLoop=1;jettySize=auto;html=1;entryX=0.5;entryY=0;entryDx=0;entryDy=0;" edge="1" parent="1" source="BNl5geYrNrUiQaszXV6u-276" target="BNl5geYrNrUiQaszXV6u-420">
          <mxGeometry relative="1" as="geometry" />
        </mxCell>
        <mxCell id="BNl5geYrNrUiQaszXV6u-276" value="Lp范数计算" style="rounded=1;whiteSpace=wrap;html=1;" vertex="1" parent="1">
          <mxGeometry x="674" y="484" width="90" height="20" as="geometry" />
        </mxCell>
        <mxCell id="BNl5geYrNrUiQaszXV6u-277" style="edgeStyle=orthogonalEdgeStyle;rounded=0;orthogonalLoop=1;jettySize=auto;html=1;entryX=0.5;entryY=0;entryDx=0;entryDy=0;exitX=0.542;exitY=0.977;exitDx=0;exitDy=0;exitPerimeter=0;" edge="1" parent="1" source="BNl5geYrNrUiQaszXV6u-231" target="BNl5geYrNrUiQaszXV6u-276">
          <mxGeometry relative="1" as="geometry">
            <mxPoint x="714" y="511" as="targetPoint" />
          </mxGeometry>
        </mxCell>
        <mxCell id="BNl5geYrNrUiQaszXV6u-299" style="edgeStyle=orthogonalEdgeStyle;rounded=0;orthogonalLoop=1;jettySize=auto;html=1;entryX=0.5;entryY=0;entryDx=0;entryDy=0;" edge="1" parent="1" source="BNl5geYrNrUiQaszXV6u-300">
          <mxGeometry relative="1" as="geometry">
            <mxPoint x="475" y="672" as="targetPoint" />
          </mxGeometry>
        </mxCell>
        <mxCell id="BNl5geYrNrUiQaszXV6u-300" value="变化率计算&lt;span style=&quot;color: rgba(0, 0, 0, 0); font-family: monospace; font-size: 0px; text-align: start; text-wrap-mode: nowrap;&quot;&gt;%3CmxGraphModel%3E%3Croot%3E%3CmxCell%20id%3D%220%22%2F%3E%3CmxCell%20id%3D%221%22%20parent%3D%220%22%2F%3E%3CmxCell%20id%3D%222%22%20value%3D%22%E5%B7%AE%E5%88%86%E8%AE%A1%E7%AE%97%22%20style%3D%22rounded%3D1%3BwhiteSpace%3Dwrap%3Bhtml%3D1%3B%22%20vertex%3D%221%22%20parent%3D%221%22%3E%3CmxGeometry%20x%3D%22304%22%20y%3D%22483%22%20width%3D%2280%22%20height%3D%2220%22%20as%3D%22geometry%22%2F%3E%3C%2FmxCell%3E%3C%2Froot%3E%3C%2FmxGraphModel%3E&lt;/span&gt;" style="rounded=1;whiteSpace=wrap;html=1;" vertex="1" parent="1">
          <mxGeometry x="430" y="626" width="92" height="20" as="geometry" />
        </mxCell>
        <mxCell id="BNl5geYrNrUiQaszXV6u-444" style="edgeStyle=orthogonalEdgeStyle;rounded=0;orthogonalLoop=1;jettySize=auto;html=1;entryX=0.5;entryY=0;entryDx=0;entryDy=0;" edge="1" parent="1" source="BNl5geYrNrUiQaszXV6u-302" target="BNl5geYrNrUiQaszXV6u-380">
          <mxGeometry relative="1" as="geometry" />
        </mxCell>
        <mxCell id="BNl5geYrNrUiQaszXV6u-302" value="变化率计算&lt;span style=&quot;color: rgba(0, 0, 0, 0); font-family: monospace; font-size: 0px; text-align: start; text-wrap-mode: nowrap;&quot;&gt;%3CmxGraphModel%3E%3Croot%3E%3CmxCell%20id%3D%220%22%2F%3E%3CmxCell%20id%3D%221%22%20parent%3D%220%22%2F%3E%3CmxCell%20id%3D%222%22%20value%3D%22%E5%B7%AE%E5%88%86%E8%AE%A1%E7%AE%97%22%20style%3D%22rounded%3D1%3BwhiteSpace%3Dwrap%3Bhtml%3D1%3B%22%20vertex%3D%221%22%20parent%3D%221%22%3E%3CmxGeometry%20x%3D%22304%22%20y%3D%22483%22%20width%3D%2280%22%20height%3D%2220%22%20as%3D%22geometry%22%2F%3E%3C%2FmxCell%3E%3C%2Froot%3E%3C%2FmxGraphModel%3E&lt;/span&gt;" style="rounded=1;whiteSpace=wrap;html=1;" vertex="1" parent="1">
          <mxGeometry x="673.5" y="626" width="92" height="20" as="geometry" />
        </mxCell>
        <mxCell id="BNl5geYrNrUiQaszXV6u-305" style="edgeStyle=orthogonalEdgeStyle;rounded=0;orthogonalLoop=1;jettySize=auto;html=1;entryX=0.5;entryY=0;entryDx=0;entryDy=0;" edge="1" parent="1" target="BNl5geYrNrUiQaszXV6u-308">
          <mxGeometry relative="1" as="geometry">
            <mxPoint x="475" y="772" as="sourcePoint" />
          </mxGeometry>
        </mxCell>
        <mxCell id="BNl5geYrNrUiQaszXV6u-306" style="edgeStyle=orthogonalEdgeStyle;rounded=0;orthogonalLoop=1;jettySize=auto;html=1;entryX=0.5;entryY=0;entryDx=0;entryDy=0;" edge="1" parent="1" target="BNl5geYrNrUiQaszXV6u-310">
          <mxGeometry relative="1" as="geometry">
            <mxPoint x="718.5454545454545" y="771.75" as="sourcePoint" />
          </mxGeometry>
        </mxCell>
        <mxCell id="BNl5geYrNrUiQaszXV6u-307" style="edgeStyle=orthogonalEdgeStyle;rounded=0;orthogonalLoop=1;jettySize=auto;html=1;entryX=0.5;entryY=0;entryDx=0;entryDy=0;" edge="1" parent="1" source="BNl5geYrNrUiQaszXV6u-308" target="BNl5geYrNrUiQaszXV6u-357">
          <mxGeometry relative="1" as="geometry" />
        </mxCell>
        <mxCell id="BNl5geYrNrUiQaszXV6u-308" value="相干空间向量计算" style="rounded=1;whiteSpace=wrap;html=1;" vertex="1" parent="1">
          <mxGeometry x="408.5" y="806" width="132" height="30" as="geometry" />
        </mxCell>
        <mxCell id="BNl5geYrNrUiQaszXV6u-309" style="edgeStyle=orthogonalEdgeStyle;rounded=0;orthogonalLoop=1;jettySize=auto;html=1;entryX=0.5;entryY=0;entryDx=0;entryDy=0;" edge="1" parent="1" source="BNl5geYrNrUiQaszXV6u-310" target="BNl5geYrNrUiQaszXV6u-359">
          <mxGeometry relative="1" as="geometry" />
        </mxCell>
        <mxCell id="BNl5geYrNrUiQaszXV6u-310" value="相干时间向量计算" style="rounded=1;whiteSpace=wrap;html=1;" vertex="1" parent="1">
          <mxGeometry x="652" y="806" width="132" height="30" as="geometry" />
        </mxCell>
        <mxCell id="BNl5geYrNrUiQaszXV6u-311" style="edgeStyle=orthogonalEdgeStyle;rounded=0;orthogonalLoop=1;jettySize=auto;html=1;entryX=1;entryY=0.5;entryDx=0;entryDy=0;" edge="1" parent="1" source="BNl5geYrNrUiQaszXV6u-313" target="BNl5geYrNrUiQaszXV6u-308">
          <mxGeometry relative="1" as="geometry" />
        </mxCell>
        <mxCell id="BNl5geYrNrUiQaszXV6u-312" style="edgeStyle=orthogonalEdgeStyle;rounded=0;orthogonalLoop=1;jettySize=auto;html=1;entryX=0;entryY=0.5;entryDx=0;entryDy=0;" edge="1" parent="1" source="BNl5geYrNrUiQaszXV6u-313" target="BNl5geYrNrUiQaszXV6u-310">
          <mxGeometry relative="1" as="geometry" />
        </mxCell>
        <mxCell id="BNl5geYrNrUiQaszXV6u-313" value="阈值η0" style="rounded=1;whiteSpace=wrap;html=1;" vertex="1" parent="1">
          <mxGeometry x="567" y="810" width="58" height="20" as="geometry" />
        </mxCell>
        <mxCell id="BNl5geYrNrUiQaszXV6u-314" value="" style="group;rotation=90;" vertex="1" connectable="0" parent="1">
          <mxGeometry x="407" y="905" width="129" height="116" as="geometry" />
        </mxCell>
        <mxCell id="BNl5geYrNrUiQaszXV6u-315" value="" style="rounded=1;whiteSpace=wrap;html=1;dashed=1;dashPattern=8 8;" vertex="1" parent="BNl5geYrNrUiQaszXV6u-314">
          <mxGeometry x="12" y="15" width="110" height="100" as="geometry" />
        </mxCell>
        <mxCell id="BNl5geYrNrUiQaszXV6u-316" value="" style="rounded=0;whiteSpace=wrap;html=1;fillColor=#66B2FF;" vertex="1" parent="BNl5geYrNrUiQaszXV6u-314">
          <mxGeometry x="37" y="36" width="10" height="10" as="geometry" />
        </mxCell>
        <mxCell id="BNl5geYrNrUiQaszXV6u-317" value="" style="rounded=0;whiteSpace=wrap;html=1;fillColor=#66B2FF;" vertex="1" parent="BNl5geYrNrUiQaszXV6u-314">
          <mxGeometry x="57" y="36" width="10" height="10" as="geometry" />
        </mxCell>
        <mxCell id="BNl5geYrNrUiQaszXV6u-318" value="" style="rounded=0;whiteSpace=wrap;html=1;fillColor=#66B2FF;" vertex="1" parent="BNl5geYrNrUiQaszXV6u-314">
          <mxGeometry x="77" y="36" width="10" height="10" as="geometry" />
        </mxCell>
        <mxCell id="BNl5geYrNrUiQaszXV6u-319" value="" style="rounded=0;whiteSpace=wrap;html=1;fillColor=#3333FF;" vertex="1" parent="BNl5geYrNrUiQaszXV6u-314">
          <mxGeometry x="37" y="56" width="10" height="10" as="geometry" />
        </mxCell>
        <mxCell id="BNl5geYrNrUiQaszXV6u-320" value="" style="rounded=0;whiteSpace=wrap;html=1;fillColor=#3333FF;" vertex="1" parent="BNl5geYrNrUiQaszXV6u-314">
          <mxGeometry x="57" y="56" width="10" height="10" as="geometry" />
        </mxCell>
        <mxCell id="BNl5geYrNrUiQaszXV6u-321" value="" style="rounded=0;whiteSpace=wrap;html=1;fillColor=#3333FF;" vertex="1" parent="BNl5geYrNrUiQaszXV6u-314">
          <mxGeometry x="77" y="56" width="10" height="10" as="geometry" />
        </mxCell>
        <mxCell id="BNl5geYrNrUiQaszXV6u-322" value="" style="rounded=0;whiteSpace=wrap;html=1;fillColor=#FF3399;" vertex="1" parent="BNl5geYrNrUiQaszXV6u-314">
          <mxGeometry x="37" y="76" width="10" height="10" as="geometry" />
        </mxCell>
        <mxCell id="BNl5geYrNrUiQaszXV6u-323" value="" style="rounded=0;whiteSpace=wrap;html=1;fillColor=#FF3399;" vertex="1" parent="BNl5geYrNrUiQaszXV6u-314">
          <mxGeometry x="57" y="76" width="10" height="10" as="geometry" />
        </mxCell>
        <mxCell id="BNl5geYrNrUiQaszXV6u-324" value="" style="rounded=0;whiteSpace=wrap;html=1;fillColor=#FF3399;" vertex="1" parent="BNl5geYrNrUiQaszXV6u-314">
          <mxGeometry x="77" y="76" width="10" height="10" as="geometry" />
        </mxCell>
        <mxCell id="BNl5geYrNrUiQaszXV6u-325" value="&lt;font style=&quot;font-size: 9px;&quot;&gt;...&lt;/font&gt;" style="text;html=1;align=center;verticalAlign=middle;whiteSpace=wrap;rounded=0;" vertex="1" parent="BNl5geYrNrUiQaszXV6u-314">
          <mxGeometry x="45" y="58" width="15" as="geometry" />
        </mxCell>
        <mxCell id="BNl5geYrNrUiQaszXV6u-326" value="&lt;font style=&quot;font-size: 9px;&quot;&gt;...&lt;/font&gt;" style="text;html=1;align=center;verticalAlign=middle;whiteSpace=wrap;rounded=0;" vertex="1" parent="BNl5geYrNrUiQaszXV6u-314">
          <mxGeometry x="65" y="58" width="15" as="geometry" />
        </mxCell>
        <mxCell id="BNl5geYrNrUiQaszXV6u-327" value="&lt;font style=&quot;font-size: 9px;&quot;&gt;...&lt;/font&gt;" style="text;html=1;align=center;verticalAlign=middle;whiteSpace=wrap;rounded=0;rotation=90;" vertex="1" parent="BNl5geYrNrUiQaszXV6u-314">
          <mxGeometry x="79" y="71" width="15" as="geometry" />
        </mxCell>
        <mxCell id="BNl5geYrNrUiQaszXV6u-328" value="&lt;font style=&quot;font-size: 9px;&quot;&gt;...&lt;/font&gt;" style="text;html=1;align=center;verticalAlign=middle;whiteSpace=wrap;rounded=0;rotation=90;" vertex="1" parent="BNl5geYrNrUiQaszXV6u-314">
          <mxGeometry x="58" y="71" width="15" as="geometry" />
        </mxCell>
        <mxCell id="BNl5geYrNrUiQaszXV6u-329" value="&lt;font style=&quot;font-size: 9px;&quot;&gt;...&lt;/font&gt;" style="text;html=1;align=center;verticalAlign=middle;whiteSpace=wrap;rounded=0;rotation=90;" vertex="1" parent="BNl5geYrNrUiQaszXV6u-314">
          <mxGeometry x="38" y="71" width="15" as="geometry" />
        </mxCell>
        <mxCell id="BNl5geYrNrUiQaszXV6u-330" value="&lt;span style=&quot;font-size: 7px;&quot;&gt;&lt;i&gt;ScEmbedding&lt;/i&gt;&lt;/span&gt;" style="text;html=1;align=center;verticalAlign=middle;resizable=0;points=[];autosize=1;strokeColor=none;fillColor=none;" vertex="1" parent="BNl5geYrNrUiQaszXV6u-314">
          <mxGeometry x="6" y="6" width="70" height="30" as="geometry" />
        </mxCell>
        <mxCell id="BNl5geYrNrUiQaszXV6u-331" value="" style="shape=curlyBracket;whiteSpace=wrap;html=1;rounded=1;flipH=1;labelPosition=right;verticalLabelPosition=middle;align=left;verticalAlign=middle;" vertex="1" parent="BNl5geYrNrUiQaszXV6u-314">
          <mxGeometry x="92" y="36" width="10" height="49" as="geometry" />
        </mxCell>
        <mxCell id="BNl5geYrNrUiQaszXV6u-332" value="" style="shape=curlyBracket;whiteSpace=wrap;html=1;rounded=1;flipH=1;labelPosition=right;verticalLabelPosition=middle;align=left;verticalAlign=middle;rotation=90;size=0.5;" vertex="1" parent="BNl5geYrNrUiQaszXV6u-314">
          <mxGeometry x="56.5" y="69.5" width="10" height="52" as="geometry" />
        </mxCell>
        <mxCell id="BNl5geYrNrUiQaszXV6u-333" value="n" style="text;html=1;align=center;verticalAlign=middle;resizable=0;points=[];autosize=1;strokeColor=none;fillColor=none;" vertex="1" parent="BNl5geYrNrUiQaszXV6u-314">
          <mxGeometry x="94" y="46" width="30" height="30" as="geometry" />
        </mxCell>
        <mxCell id="BNl5geYrNrUiQaszXV6u-334" value="d" style="text;html=1;align=center;verticalAlign=middle;resizable=0;points=[];autosize=1;strokeColor=none;fillColor=none;" vertex="1" parent="BNl5geYrNrUiQaszXV6u-314">
          <mxGeometry x="46" y="92" width="30" height="30" as="geometry" />
        </mxCell>
        <mxCell id="BNl5geYrNrUiQaszXV6u-335" value="" style="group" vertex="1" connectable="0" parent="1">
          <mxGeometry x="659" y="909" width="129" height="116" as="geometry" />
        </mxCell>
        <mxCell id="BNl5geYrNrUiQaszXV6u-336" value="" style="rounded=1;whiteSpace=wrap;html=1;dashed=1;dashPattern=8 8;" vertex="1" parent="BNl5geYrNrUiQaszXV6u-335">
          <mxGeometry x="5" y="11" width="110" height="100" as="geometry" />
        </mxCell>
        <mxCell id="BNl5geYrNrUiQaszXV6u-337" value="" style="rounded=0;whiteSpace=wrap;html=1;fillColor=#66B2FF;" vertex="1" parent="BNl5geYrNrUiQaszXV6u-335">
          <mxGeometry x="30" y="32" width="10" height="10" as="geometry" />
        </mxCell>
        <mxCell id="BNl5geYrNrUiQaszXV6u-338" value="" style="rounded=0;whiteSpace=wrap;html=1;fillColor=#66B2FF;" vertex="1" parent="BNl5geYrNrUiQaszXV6u-335">
          <mxGeometry x="50" y="32" width="10" height="10" as="geometry" />
        </mxCell>
        <mxCell id="BNl5geYrNrUiQaszXV6u-339" value="" style="rounded=0;whiteSpace=wrap;html=1;fillColor=#66B2FF;" vertex="1" parent="BNl5geYrNrUiQaszXV6u-335">
          <mxGeometry x="70" y="32" width="10" height="10" as="geometry" />
        </mxCell>
        <mxCell id="BNl5geYrNrUiQaszXV6u-340" value="" style="rounded=0;whiteSpace=wrap;html=1;fillColor=#3333FF;" vertex="1" parent="BNl5geYrNrUiQaszXV6u-335">
          <mxGeometry x="30" y="52" width="10" height="10" as="geometry" />
        </mxCell>
        <mxCell id="BNl5geYrNrUiQaszXV6u-341" value="" style="rounded=0;whiteSpace=wrap;html=1;fillColor=#3333FF;" vertex="1" parent="BNl5geYrNrUiQaszXV6u-335">
          <mxGeometry x="50" y="52" width="10" height="10" as="geometry" />
        </mxCell>
        <mxCell id="BNl5geYrNrUiQaszXV6u-342" value="" style="rounded=0;whiteSpace=wrap;html=1;fillColor=#3333FF;" vertex="1" parent="BNl5geYrNrUiQaszXV6u-335">
          <mxGeometry x="70" y="52" width="10" height="10" as="geometry" />
        </mxCell>
        <mxCell id="BNl5geYrNrUiQaszXV6u-343" value="" style="rounded=0;whiteSpace=wrap;html=1;fillColor=#FF3399;" vertex="1" parent="BNl5geYrNrUiQaszXV6u-335">
          <mxGeometry x="30" y="72" width="10" height="10" as="geometry" />
        </mxCell>
        <mxCell id="BNl5geYrNrUiQaszXV6u-344" value="" style="rounded=0;whiteSpace=wrap;html=1;fillColor=#FF3399;" vertex="1" parent="BNl5geYrNrUiQaszXV6u-335">
          <mxGeometry x="50" y="72" width="10" height="10" as="geometry" />
        </mxCell>
        <mxCell id="BNl5geYrNrUiQaszXV6u-345" value="" style="rounded=0;whiteSpace=wrap;html=1;fillColor=#FF3399;" vertex="1" parent="BNl5geYrNrUiQaszXV6u-335">
          <mxGeometry x="70" y="72" width="10" height="10" as="geometry" />
        </mxCell>
        <mxCell id="BNl5geYrNrUiQaszXV6u-346" value="&lt;font style=&quot;font-size: 9px;&quot;&gt;...&lt;/font&gt;" style="text;html=1;align=center;verticalAlign=middle;whiteSpace=wrap;rounded=0;" vertex="1" parent="BNl5geYrNrUiQaszXV6u-335">
          <mxGeometry x="38" y="54" width="15" as="geometry" />
        </mxCell>
        <mxCell id="BNl5geYrNrUiQaszXV6u-347" value="&lt;font style=&quot;font-size: 9px;&quot;&gt;...&lt;/font&gt;" style="text;html=1;align=center;verticalAlign=middle;whiteSpace=wrap;rounded=0;" vertex="1" parent="BNl5geYrNrUiQaszXV6u-335">
          <mxGeometry x="58" y="54" width="15" as="geometry" />
        </mxCell>
        <mxCell id="BNl5geYrNrUiQaszXV6u-348" value="&lt;font style=&quot;font-size: 9px;&quot;&gt;...&lt;/font&gt;" style="text;html=1;align=center;verticalAlign=middle;whiteSpace=wrap;rounded=0;rotation=90;" vertex="1" parent="BNl5geYrNrUiQaszXV6u-335">
          <mxGeometry x="72" y="67" width="15" as="geometry" />
        </mxCell>
        <mxCell id="BNl5geYrNrUiQaszXV6u-349" value="&lt;font style=&quot;font-size: 9px;&quot;&gt;...&lt;/font&gt;" style="text;html=1;align=center;verticalAlign=middle;whiteSpace=wrap;rounded=0;rotation=90;" vertex="1" parent="BNl5geYrNrUiQaszXV6u-335">
          <mxGeometry x="51" y="67" width="15" as="geometry" />
        </mxCell>
        <mxCell id="BNl5geYrNrUiQaszXV6u-350" value="&lt;font style=&quot;font-size: 9px;&quot;&gt;...&lt;/font&gt;" style="text;html=1;align=center;verticalAlign=middle;whiteSpace=wrap;rounded=0;rotation=90;" vertex="1" parent="BNl5geYrNrUiQaszXV6u-335">
          <mxGeometry x="31" y="67" width="15" as="geometry" />
        </mxCell>
        <mxCell id="BNl5geYrNrUiQaszXV6u-351" value="&lt;span style=&quot;font-size: 7px;&quot;&gt;&lt;i&gt;TcEmbedding&lt;/i&gt;&lt;/span&gt;" style="text;html=1;align=center;verticalAlign=middle;resizable=0;points=[];autosize=1;strokeColor=none;fillColor=none;" vertex="1" parent="BNl5geYrNrUiQaszXV6u-335">
          <mxGeometry x="-1" y="2" width="70" height="30" as="geometry" />
        </mxCell>
        <mxCell id="BNl5geYrNrUiQaszXV6u-352" value="" style="shape=curlyBracket;whiteSpace=wrap;html=1;rounded=1;flipH=1;labelPosition=right;verticalLabelPosition=middle;align=left;verticalAlign=middle;" vertex="1" parent="BNl5geYrNrUiQaszXV6u-335">
          <mxGeometry x="85" y="32" width="10" height="49" as="geometry" />
        </mxCell>
        <mxCell id="BNl5geYrNrUiQaszXV6u-353" value="" style="shape=curlyBracket;whiteSpace=wrap;html=1;rounded=1;flipH=1;labelPosition=right;verticalLabelPosition=middle;align=left;verticalAlign=middle;rotation=90;size=0.5;" vertex="1" parent="BNl5geYrNrUiQaszXV6u-335">
          <mxGeometry x="49.5" y="65.5" width="10" height="52" as="geometry" />
        </mxCell>
        <mxCell id="BNl5geYrNrUiQaszXV6u-354" value="t" style="text;html=1;align=center;verticalAlign=middle;resizable=0;points=[];autosize=1;strokeColor=none;fillColor=none;" vertex="1" parent="BNl5geYrNrUiQaszXV6u-335">
          <mxGeometry x="87" y="42" width="30" height="30" as="geometry" />
        </mxCell>
        <mxCell id="BNl5geYrNrUiQaszXV6u-355" value="d" style="text;html=1;align=center;verticalAlign=middle;resizable=0;points=[];autosize=1;strokeColor=none;fillColor=none;" vertex="1" parent="BNl5geYrNrUiQaszXV6u-335">
          <mxGeometry x="39" y="88" width="30" height="30" as="geometry" />
        </mxCell>
        <mxCell id="BNl5geYrNrUiQaszXV6u-356" style="edgeStyle=orthogonalEdgeStyle;rounded=0;orthogonalLoop=1;jettySize=auto;html=1;" edge="1" parent="1" source="BNl5geYrNrUiQaszXV6u-357" target="BNl5geYrNrUiQaszXV6u-315">
          <mxGeometry relative="1" as="geometry" />
        </mxCell>
        <mxCell id="BNl5geYrNrUiQaszXV6u-357" value="高纬映射" style="rounded=1;whiteSpace=wrap;html=1;" vertex="1" parent="1">
          <mxGeometry x="407.5" y="859" width="132" height="30" as="geometry" />
        </mxCell>
        <mxCell id="BNl5geYrNrUiQaszXV6u-358" style="edgeStyle=orthogonalEdgeStyle;rounded=0;orthogonalLoop=1;jettySize=auto;html=1;" edge="1" parent="1" source="BNl5geYrNrUiQaszXV6u-359" target="BNl5geYrNrUiQaszXV6u-336">
          <mxGeometry relative="1" as="geometry" />
        </mxCell>
        <mxCell id="BNl5geYrNrUiQaszXV6u-359" value="高纬映射" style="rounded=1;whiteSpace=wrap;html=1;" vertex="1" parent="1">
          <mxGeometry x="652.5" y="859" width="132" height="30" as="geometry" />
        </mxCell>
        <mxCell id="BNl5geYrNrUiQaszXV6u-360" value="" style="rounded=1;whiteSpace=wrap;html=1;dashed=1;dashPattern=8 8;" vertex="1" parent="1">
          <mxGeometry x="418.5" y="676.5" width="110" height="100" as="geometry" />
        </mxCell>
        <mxCell id="BNl5geYrNrUiQaszXV6u-361" value="" style="rounded=0;whiteSpace=wrap;html=1;fillColor=#9AC7BF;" vertex="1" parent="1">
          <mxGeometry x="443.5" y="697.5" width="10" height="10" as="geometry" />
        </mxCell>
        <mxCell id="BNl5geYrNrUiQaszXV6u-362" value="" style="rounded=0;whiteSpace=wrap;html=1;fillColor=#B3B3B3;" vertex="1" parent="1">
          <mxGeometry x="463.5" y="697.5" width="10" height="10" as="geometry" />
        </mxCell>
        <mxCell id="BNl5geYrNrUiQaszXV6u-363" value="" style="rounded=0;whiteSpace=wrap;html=1;fillColor=#B3B3B3;" vertex="1" parent="1">
          <mxGeometry x="483.5" y="697.5" width="10" height="10" as="geometry" />
        </mxCell>
        <mxCell id="BNl5geYrNrUiQaszXV6u-364" value="" style="rounded=0;whiteSpace=wrap;html=1;fillColor=#FFFFFF;" vertex="1" parent="1">
          <mxGeometry x="443.5" y="717.5" width="10" height="10" as="geometry" />
        </mxCell>
        <mxCell id="BNl5geYrNrUiQaszXV6u-365" value="" style="rounded=0;whiteSpace=wrap;html=1;fillColor=#E6E6E6;" vertex="1" parent="1">
          <mxGeometry x="463.5" y="717.5" width="10" height="10" as="geometry" />
        </mxCell>
        <mxCell id="BNl5geYrNrUiQaszXV6u-366" value="" style="rounded=0;whiteSpace=wrap;html=1;fillColor=#E6E6E6;" vertex="1" parent="1">
          <mxGeometry x="483.5" y="717.5" width="10" height="10" as="geometry" />
        </mxCell>
        <mxCell id="BNl5geYrNrUiQaszXV6u-367" value="" style="rounded=0;whiteSpace=wrap;html=1;fillColor=#FFFFFF;" vertex="1" parent="1">
          <mxGeometry x="443.5" y="737.5" width="10" height="10" as="geometry" />
        </mxCell>
        <mxCell id="BNl5geYrNrUiQaszXV6u-368" value="" style="rounded=0;whiteSpace=wrap;html=1;fillColor=#FFFFFF;" vertex="1" parent="1">
          <mxGeometry x="463.5" y="737.5" width="10" height="10" as="geometry" />
        </mxCell>
        <mxCell id="BNl5geYrNrUiQaszXV6u-369" value="" style="rounded=0;whiteSpace=wrap;html=1;fillColor=#4D4D4D;" vertex="1" parent="1">
          <mxGeometry x="483.5" y="737.5" width="10" height="10" as="geometry" />
        </mxCell>
        <mxCell id="BNl5geYrNrUiQaszXV6u-370" value="&lt;font style=&quot;font-size: 9px;&quot;&gt;...&lt;/font&gt;" style="text;html=1;align=center;verticalAlign=middle;whiteSpace=wrap;rounded=0;" vertex="1" parent="1">
          <mxGeometry x="451.5" y="719.5" width="15" as="geometry" />
        </mxCell>
        <mxCell id="BNl5geYrNrUiQaszXV6u-371" value="&lt;font style=&quot;font-size: 9px;&quot;&gt;...&lt;/font&gt;" style="text;html=1;align=center;verticalAlign=middle;whiteSpace=wrap;rounded=0;" vertex="1" parent="1">
          <mxGeometry x="471.5" y="719.5" width="15" as="geometry" />
        </mxCell>
        <mxCell id="BNl5geYrNrUiQaszXV6u-372" value="&lt;font style=&quot;font-size: 9px;&quot;&gt;...&lt;/font&gt;" style="text;html=1;align=center;verticalAlign=middle;whiteSpace=wrap;rounded=0;rotation=90;" vertex="1" parent="1">
          <mxGeometry x="485.5" y="732.5" width="15" as="geometry" />
        </mxCell>
        <mxCell id="BNl5geYrNrUiQaszXV6u-373" value="&lt;font style=&quot;font-size: 9px;&quot;&gt;...&lt;/font&gt;" style="text;html=1;align=center;verticalAlign=middle;whiteSpace=wrap;rounded=0;rotation=90;" vertex="1" parent="1">
          <mxGeometry x="464.5" y="732.5" width="15" as="geometry" />
        </mxCell>
        <mxCell id="BNl5geYrNrUiQaszXV6u-374" value="&lt;font style=&quot;font-size: 9px;&quot;&gt;...&lt;/font&gt;" style="text;html=1;align=center;verticalAlign=middle;whiteSpace=wrap;rounded=0;rotation=90;" vertex="1" parent="1">
          <mxGeometry x="444.5" y="732.5" width="15" as="geometry" />
        </mxCell>
        <mxCell id="BNl5geYrNrUiQaszXV6u-375" value="" style="shape=curlyBracket;whiteSpace=wrap;html=1;rounded=1;flipH=1;labelPosition=right;verticalLabelPosition=middle;align=left;verticalAlign=middle;" vertex="1" parent="1">
          <mxGeometry x="498.5" y="697.5" width="10" height="49" as="geometry" />
        </mxCell>
        <mxCell id="BNl5geYrNrUiQaszXV6u-376" value="" style="shape=curlyBracket;whiteSpace=wrap;html=1;rounded=1;flipH=1;labelPosition=right;verticalLabelPosition=middle;align=left;verticalAlign=middle;rotation=90;size=0.5;" vertex="1" parent="1">
          <mxGeometry x="463" y="731" width="10" height="52" as="geometry" />
        </mxCell>
        <mxCell id="BNl5geYrNrUiQaszXV6u-377" value="n" style="text;html=1;align=center;verticalAlign=middle;resizable=0;points=[];autosize=1;strokeColor=none;fillColor=none;" vertex="1" parent="1">
          <mxGeometry x="500.5" y="707.5" width="30" height="30" as="geometry" />
        </mxCell>
        <mxCell id="BNl5geYrNrUiQaszXV6u-378" value="&lt;div&gt;&lt;i style=&quot;&quot;&gt;&lt;font style=&quot;font-size: 10px;&quot;&gt;η&lt;/font&gt;&lt;/i&gt;&lt;/div&gt;" style="text;html=1;align=center;verticalAlign=middle;resizable=0;points=[];autosize=1;strokeColor=none;fillColor=none;" vertex="1" parent="1">
          <mxGeometry x="419" y="670.5" width="30" height="30" as="geometry" />
        </mxCell>
        <mxCell id="BNl5geYrNrUiQaszXV6u-379" value="n" style="text;html=1;align=center;verticalAlign=middle;resizable=0;points=[];autosize=1;strokeColor=none;fillColor=none;" vertex="1" parent="1">
          <mxGeometry x="451.5" y="753" width="30" height="30" as="geometry" />
        </mxCell>
        <mxCell id="BNl5geYrNrUiQaszXV6u-380" value="" style="rounded=1;whiteSpace=wrap;html=1;dashed=1;dashPattern=8 8;" vertex="1" parent="1">
          <mxGeometry x="664.5" y="676.5" width="109" height="100" as="geometry" />
        </mxCell>
        <mxCell id="BNl5geYrNrUiQaszXV6u-381" value="" style="rounded=0;whiteSpace=wrap;html=1;fillColor=#9AC7BF;" vertex="1" parent="1">
          <mxGeometry x="687" y="693.25" width="10" height="10" as="geometry" />
        </mxCell>
        <mxCell id="BNl5geYrNrUiQaszXV6u-382" value="" style="rounded=0;whiteSpace=wrap;html=1;fillColor=#B3B3B3;" vertex="1" parent="1">
          <mxGeometry x="707" y="693.25" width="10" height="10" as="geometry" />
        </mxCell>
        <mxCell id="BNl5geYrNrUiQaszXV6u-383" value="" style="rounded=0;whiteSpace=wrap;html=1;fillColor=#B3B3B3;" vertex="1" parent="1">
          <mxGeometry x="727" y="693.25" width="10" height="10" as="geometry" />
        </mxCell>
        <mxCell id="BNl5geYrNrUiQaszXV6u-384" value="" style="rounded=0;whiteSpace=wrap;html=1;fillColor=#FFFFFF;" vertex="1" parent="1">
          <mxGeometry x="687" y="713.25" width="10" height="10" as="geometry" />
        </mxCell>
        <mxCell id="BNl5geYrNrUiQaszXV6u-385" value="" style="rounded=0;whiteSpace=wrap;html=1;fillColor=#E6E6E6;" vertex="1" parent="1">
          <mxGeometry x="707" y="713.25" width="10" height="10" as="geometry" />
        </mxCell>
        <mxCell id="BNl5geYrNrUiQaszXV6u-386" value="" style="rounded=0;whiteSpace=wrap;html=1;fillColor=#E6E6E6;" vertex="1" parent="1">
          <mxGeometry x="727" y="713.25" width="10" height="10" as="geometry" />
        </mxCell>
        <mxCell id="BNl5geYrNrUiQaszXV6u-387" value="" style="rounded=0;whiteSpace=wrap;html=1;fillColor=#FFFFFF;" vertex="1" parent="1">
          <mxGeometry x="687" y="733.25" width="10" height="10" as="geometry" />
        </mxCell>
        <mxCell id="BNl5geYrNrUiQaszXV6u-388" value="" style="rounded=0;whiteSpace=wrap;html=1;fillColor=#FFFFFF;" vertex="1" parent="1">
          <mxGeometry x="707" y="733.25" width="10" height="10" as="geometry" />
        </mxCell>
        <mxCell id="BNl5geYrNrUiQaszXV6u-389" value="" style="rounded=0;whiteSpace=wrap;html=1;fillColor=#4D4D4D;" vertex="1" parent="1">
          <mxGeometry x="727" y="733.25" width="10" height="10" as="geometry" />
        </mxCell>
        <mxCell id="BNl5geYrNrUiQaszXV6u-390" value="&lt;font style=&quot;font-size: 9px;&quot;&gt;...&lt;/font&gt;" style="text;html=1;align=center;verticalAlign=middle;whiteSpace=wrap;rounded=0;" vertex="1" parent="1">
          <mxGeometry x="695" y="715.25" width="15" as="geometry" />
        </mxCell>
        <mxCell id="BNl5geYrNrUiQaszXV6u-391" value="&lt;font style=&quot;font-size: 9px;&quot;&gt;...&lt;/font&gt;" style="text;html=1;align=center;verticalAlign=middle;whiteSpace=wrap;rounded=0;" vertex="1" parent="1">
          <mxGeometry x="715" y="715.25" width="15" as="geometry" />
        </mxCell>
        <mxCell id="BNl5geYrNrUiQaszXV6u-392" value="&lt;font style=&quot;font-size: 9px;&quot;&gt;...&lt;/font&gt;" style="text;html=1;align=center;verticalAlign=middle;whiteSpace=wrap;rounded=0;rotation=90;" vertex="1" parent="1">
          <mxGeometry x="729" y="728.25" width="15" as="geometry" />
        </mxCell>
        <mxCell id="BNl5geYrNrUiQaszXV6u-393" value="&lt;font style=&quot;font-size: 9px;&quot;&gt;...&lt;/font&gt;" style="text;html=1;align=center;verticalAlign=middle;whiteSpace=wrap;rounded=0;rotation=90;" vertex="1" parent="1">
          <mxGeometry x="708" y="728.25" width="15" as="geometry" />
        </mxCell>
        <mxCell id="BNl5geYrNrUiQaszXV6u-394" value="&lt;font style=&quot;font-size: 9px;&quot;&gt;...&lt;/font&gt;" style="text;html=1;align=center;verticalAlign=middle;whiteSpace=wrap;rounded=0;rotation=90;" vertex="1" parent="1">
          <mxGeometry x="688" y="728.25" width="15" as="geometry" />
        </mxCell>
        <mxCell id="BNl5geYrNrUiQaszXV6u-395" value="" style="shape=curlyBracket;whiteSpace=wrap;html=1;rounded=1;flipH=1;labelPosition=right;verticalLabelPosition=middle;align=left;verticalAlign=middle;" vertex="1" parent="1">
          <mxGeometry x="742" y="693.25" width="10" height="49" as="geometry" />
        </mxCell>
        <mxCell id="BNl5geYrNrUiQaszXV6u-396" value="" style="shape=curlyBracket;whiteSpace=wrap;html=1;rounded=1;flipH=1;labelPosition=right;verticalLabelPosition=middle;align=left;verticalAlign=middle;rotation=90;size=0.5;" vertex="1" parent="1">
          <mxGeometry x="706.5" y="726.75" width="10" height="52" as="geometry" />
        </mxCell>
        <mxCell id="BNl5geYrNrUiQaszXV6u-397" value="t" style="text;html=1;align=center;verticalAlign=middle;resizable=0;points=[];autosize=1;strokeColor=none;fillColor=none;" vertex="1" parent="1">
          <mxGeometry x="744" y="703.25" width="30" height="30" as="geometry" />
        </mxCell>
        <mxCell id="BNl5geYrNrUiQaszXV6u-398" value="&lt;div&gt;&lt;i style=&quot;&quot;&gt;&lt;font style=&quot;font-size: 10px;&quot;&gt;η&lt;/font&gt;&lt;/i&gt;&lt;/div&gt;" style="text;html=1;align=center;verticalAlign=middle;resizable=0;points=[];autosize=1;strokeColor=none;fillColor=none;" vertex="1" parent="1">
          <mxGeometry x="662.5" y="666.25" width="30" height="30" as="geometry" />
        </mxCell>
        <mxCell id="BNl5geYrNrUiQaszXV6u-399" value="t" style="text;html=1;align=center;verticalAlign=middle;resizable=0;points=[];autosize=1;strokeColor=none;fillColor=none;" vertex="1" parent="1">
          <mxGeometry x="695" y="748.75" width="30" height="30" as="geometry" />
        </mxCell>
        <mxCell id="BNl5geYrNrUiQaszXV6u-402" value="" style="rounded=1;whiteSpace=wrap;html=1;dashed=1;dashPattern=8 8;" vertex="1" parent="1">
          <mxGeometry x="288.5" y="539.25" width="110" height="61" as="geometry" />
        </mxCell>
        <mxCell id="BNl5geYrNrUiQaszXV6u-403" value="" style="rounded=0;whiteSpace=wrap;html=1;fillColor=#4D4D4D;" vertex="1" parent="1">
          <mxGeometry x="318.5" y="559.25" width="10" height="10" as="geometry" />
        </mxCell>
        <mxCell id="BNl5geYrNrUiQaszXV6u-404" value="" style="rounded=0;whiteSpace=wrap;html=1;fillColor=#999999;" vertex="1" parent="1">
          <mxGeometry x="338.5" y="559.25" width="10" height="10" as="geometry" />
        </mxCell>
        <mxCell id="BNl5geYrNrUiQaszXV6u-405" value="" style="rounded=0;whiteSpace=wrap;html=1;fillColor=#E6E6E6;" vertex="1" parent="1">
          <mxGeometry x="358.5" y="559.25" width="10" height="10" as="geometry" />
        </mxCell>
        <mxCell id="BNl5geYrNrUiQaszXV6u-406" value="&lt;font style=&quot;font-size: 9px;&quot;&gt;...&lt;/font&gt;" style="text;html=1;align=center;verticalAlign=middle;whiteSpace=wrap;rounded=0;" vertex="1" parent="1">
          <mxGeometry x="326.5" y="561.25" width="15" as="geometry" />
        </mxCell>
        <mxCell id="BNl5geYrNrUiQaszXV6u-407" value="&lt;font style=&quot;font-size: 9px;&quot;&gt;...&lt;/font&gt;" style="text;html=1;align=center;verticalAlign=middle;whiteSpace=wrap;rounded=0;" vertex="1" parent="1">
          <mxGeometry x="346.5" y="561.25" width="12" as="geometry" />
        </mxCell>
        <mxCell id="BNl5geYrNrUiQaszXV6u-408" value="&lt;i style=&quot;font-size: 7px;&quot;&gt;CFRLp&lt;/i&gt;" style="text;html=1;align=center;verticalAlign=middle;resizable=0;points=[];autosize=1;strokeColor=none;fillColor=none;" vertex="1" parent="1">
          <mxGeometry x="278.5" y="529.25" width="50" height="30" as="geometry" />
        </mxCell>
        <mxCell id="BNl5geYrNrUiQaszXV6u-409" value="" style="shape=curlyBracket;whiteSpace=wrap;html=1;rounded=1;flipH=1;labelPosition=right;verticalLabelPosition=middle;align=left;verticalAlign=middle;rotation=90;size=0.5;" vertex="1" parent="1">
          <mxGeometry x="339" y="552.25" width="10" height="52" as="geometry" />
        </mxCell>
        <mxCell id="BNl5geYrNrUiQaszXV6u-438" style="edgeStyle=orthogonalEdgeStyle;rounded=0;orthogonalLoop=1;jettySize=auto;html=1;entryX=0.5;entryY=0;entryDx=0;entryDy=0;" edge="1" parent="1" source="BNl5geYrNrUiQaszXV6u-410" target="BNl5geYrNrUiQaszXV6u-111">
          <mxGeometry relative="1" as="geometry" />
        </mxCell>
        <mxCell id="BNl5geYrNrUiQaszXV6u-410" value="t" style="text;html=1;align=center;verticalAlign=middle;resizable=0;points=[];autosize=1;strokeColor=none;fillColor=none;" vertex="1" parent="1">
          <mxGeometry x="328.5" y="574.75" width="30" height="30" as="geometry" />
        </mxCell>
        <mxCell id="BNl5geYrNrUiQaszXV6u-411" value="" style="rounded=1;whiteSpace=wrap;html=1;dashed=1;dashPattern=8 8;" vertex="1" parent="1">
          <mxGeometry x="420" y="539.25" width="110" height="61" as="geometry" />
        </mxCell>
        <mxCell id="BNl5geYrNrUiQaszXV6u-412" value="" style="rounded=0;whiteSpace=wrap;html=1;fillColor=#4D4D4D;" vertex="1" parent="1">
          <mxGeometry x="451" y="560.25" width="10" height="10" as="geometry" />
        </mxCell>
        <mxCell id="BNl5geYrNrUiQaszXV6u-413" value="" style="rounded=0;whiteSpace=wrap;html=1;fillColor=#999999;" vertex="1" parent="1">
          <mxGeometry x="471" y="560.25" width="10" height="10" as="geometry" />
        </mxCell>
        <mxCell id="BNl5geYrNrUiQaszXV6u-414" value="" style="rounded=0;whiteSpace=wrap;html=1;fillColor=#E6E6E6;" vertex="1" parent="1">
          <mxGeometry x="491" y="560.25" width="10" height="10" as="geometry" />
        </mxCell>
        <mxCell id="BNl5geYrNrUiQaszXV6u-415" value="&lt;font style=&quot;font-size: 9px;&quot;&gt;...&lt;/font&gt;" style="text;html=1;align=center;verticalAlign=middle;whiteSpace=wrap;rounded=0;" vertex="1" parent="1">
          <mxGeometry x="459" y="562.25" width="15" as="geometry" />
        </mxCell>
        <mxCell id="BNl5geYrNrUiQaszXV6u-416" value="&lt;font style=&quot;font-size: 9px;&quot;&gt;...&lt;/font&gt;" style="text;html=1;align=center;verticalAlign=middle;whiteSpace=wrap;rounded=0;" vertex="1" parent="1">
          <mxGeometry x="479" y="562.25" width="12" as="geometry" />
        </mxCell>
        <mxCell id="BNl5geYrNrUiQaszXV6u-417" value="&lt;i style=&quot;font-size: 7px;&quot;&gt;CIRLp&lt;/i&gt;" style="text;html=1;align=center;verticalAlign=middle;resizable=0;points=[];autosize=1;strokeColor=none;fillColor=none;" vertex="1" parent="1">
          <mxGeometry x="416" y="530.25" width="40" height="30" as="geometry" />
        </mxCell>
        <mxCell id="BNl5geYrNrUiQaszXV6u-418" value="" style="shape=curlyBracket;whiteSpace=wrap;html=1;rounded=1;flipH=1;labelPosition=right;verticalLabelPosition=middle;align=left;verticalAlign=middle;rotation=90;size=0.5;" vertex="1" parent="1">
          <mxGeometry x="471.5" y="553.25" width="10" height="52" as="geometry" />
        </mxCell>
        <mxCell id="BNl5geYrNrUiQaszXV6u-437" style="edgeStyle=orthogonalEdgeStyle;rounded=0;orthogonalLoop=1;jettySize=auto;html=1;entryX=0.5;entryY=0;entryDx=0;entryDy=0;" edge="1" parent="1" source="BNl5geYrNrUiQaszXV6u-419" target="BNl5geYrNrUiQaszXV6u-300">
          <mxGeometry relative="1" as="geometry" />
        </mxCell>
        <mxCell id="BNl5geYrNrUiQaszXV6u-419" value="n" style="text;html=1;align=center;verticalAlign=middle;resizable=0;points=[];autosize=1;strokeColor=none;fillColor=none;" vertex="1" parent="1">
          <mxGeometry x="461" y="573.75" width="30" height="30" as="geometry" />
        </mxCell>
        <mxCell id="BNl5geYrNrUiQaszXV6u-420" value="" style="rounded=1;whiteSpace=wrap;html=1;dashed=1;dashPattern=8 8;" vertex="1" parent="1">
          <mxGeometry x="664" y="538.75" width="110" height="61" as="geometry" />
        </mxCell>
        <mxCell id="BNl5geYrNrUiQaszXV6u-421" value="" style="rounded=0;whiteSpace=wrap;html=1;fillColor=#4D4D4D;" vertex="1" parent="1">
          <mxGeometry x="695" y="559.75" width="10" height="10" as="geometry" />
        </mxCell>
        <mxCell id="BNl5geYrNrUiQaszXV6u-422" value="" style="rounded=0;whiteSpace=wrap;html=1;fillColor=#999999;" vertex="1" parent="1">
          <mxGeometry x="715" y="559.75" width="10" height="10" as="geometry" />
        </mxCell>
        <mxCell id="BNl5geYrNrUiQaszXV6u-423" value="" style="rounded=0;whiteSpace=wrap;html=1;fillColor=#E6E6E6;" vertex="1" parent="1">
          <mxGeometry x="735" y="559.75" width="10" height="10" as="geometry" />
        </mxCell>
        <mxCell id="BNl5geYrNrUiQaszXV6u-424" value="&lt;font style=&quot;font-size: 9px;&quot;&gt;...&lt;/font&gt;" style="text;html=1;align=center;verticalAlign=middle;whiteSpace=wrap;rounded=0;" vertex="1" parent="1">
          <mxGeometry x="703" y="561.75" width="15" as="geometry" />
        </mxCell>
        <mxCell id="BNl5geYrNrUiQaszXV6u-425" value="&lt;font style=&quot;font-size: 9px;&quot;&gt;...&lt;/font&gt;" style="text;html=1;align=center;verticalAlign=middle;whiteSpace=wrap;rounded=0;" vertex="1" parent="1">
          <mxGeometry x="723" y="561.75" width="12" as="geometry" />
        </mxCell>
        <mxCell id="BNl5geYrNrUiQaszXV6u-426" value="&lt;i style=&quot;font-size: 7px;&quot;&gt;CIRLp&lt;/i&gt;" style="text;html=1;align=center;verticalAlign=middle;resizable=0;points=[];autosize=1;strokeColor=none;fillColor=none;" vertex="1" parent="1">
          <mxGeometry x="662" y="529.75" width="40" height="30" as="geometry" />
        </mxCell>
        <mxCell id="BNl5geYrNrUiQaszXV6u-427" value="" style="shape=curlyBracket;whiteSpace=wrap;html=1;rounded=1;flipH=1;labelPosition=right;verticalLabelPosition=middle;align=left;verticalAlign=middle;rotation=90;size=0.5;" vertex="1" parent="1">
          <mxGeometry x="715.5" y="552.75" width="10" height="52" as="geometry" />
        </mxCell>
        <mxCell id="BNl5geYrNrUiQaszXV6u-436" style="edgeStyle=orthogonalEdgeStyle;rounded=0;orthogonalLoop=1;jettySize=auto;html=1;entryX=0.5;entryY=0;entryDx=0;entryDy=0;" edge="1" parent="1" source="BNl5geYrNrUiQaszXV6u-428" target="BNl5geYrNrUiQaszXV6u-302">
          <mxGeometry relative="1" as="geometry" />
        </mxCell>
        <mxCell id="BNl5geYrNrUiQaszXV6u-428" value="t" style="text;html=1;align=center;verticalAlign=middle;resizable=0;points=[];autosize=1;strokeColor=none;fillColor=none;" vertex="1" parent="1">
          <mxGeometry x="705" y="575.25" width="30" height="30" as="geometry" />
        </mxCell>
        <mxCell id="BNl5geYrNrUiQaszXV6u-435" style="edgeStyle=orthogonalEdgeStyle;rounded=0;orthogonalLoop=1;jettySize=auto;html=1;entryX=0.5;entryY=0;entryDx=0;entryDy=0;" edge="1" parent="1" source="BNl5geYrNrUiQaszXV6u-19" target="BNl5geYrNrUiQaszXV6u-83">
          <mxGeometry relative="1" as="geometry" />
        </mxCell>
        <mxCell id="BNl5geYrNrUiQaszXV6u-439" style="edgeStyle=orthogonalEdgeStyle;rounded=0;orthogonalLoop=1;jettySize=auto;html=1;entryX=0.5;entryY=0;entryDx=0;entryDy=0;" edge="1" parent="1" source="BNl5geYrNrUiQaszXV6u-80" target="BNl5geYrNrUiQaszXV6u-109">
          <mxGeometry relative="1" as="geometry" />
        </mxCell>
        <mxCell id="BNl5geYrNrUiQaszXV6u-441" style="edgeStyle=orthogonalEdgeStyle;rounded=0;orthogonalLoop=1;jettySize=auto;html=1;entryX=0;entryY=0.5;entryDx=0;entryDy=0;" edge="1" parent="1" source="BNl5geYrNrUiQaszXV6u-440" target="BNl5geYrNrUiQaszXV6u-208">
          <mxGeometry relative="1" as="geometry" />
        </mxCell>
        <mxCell id="BNl5geYrNrUiQaszXV6u-440" value="时间掩码" style="rounded=1;whiteSpace=wrap;html=1;" vertex="1" parent="1">
          <mxGeometry x="203.75" y="858" width="52.5" height="30" as="geometry" />
        </mxCell>
        <mxCell id="BNl5geYrNrUiQaszXV6u-443" style="edgeStyle=orthogonalEdgeStyle;rounded=0;orthogonalLoop=1;jettySize=auto;html=1;entryX=0;entryY=0.5;entryDx=0;entryDy=0;" edge="1" parent="1" source="BNl5geYrNrUiQaszXV6u-442" target="BNl5geYrNrUiQaszXV6u-359">
          <mxGeometry relative="1" as="geometry" />
        </mxCell>
        <mxCell id="BNl5geYrNrUiQaszXV6u-442" value="时间掩码" style="rounded=1;whiteSpace=wrap;html=1;" vertex="1" parent="1">
          <mxGeometry x="569.75" y="859" width="52.5" height="30" as="geometry" />
        </mxCell>
      </root>
    </mxGraphModel>
  </diagram>
</mxfile>
